%TF.GenerationSoftware,KiCad,Pcbnew,10.0.4*%
%TF.CreationDate,2026-06-29T13:53:14-04:00*%
%TF.ProjectId,production-pcb,70726f64-7563-4746-996f-6e2d7063622e,rev?*%
%TF.SameCoordinates,Original*%
%TF.FileFunction,Legend,Bot*%
%TF.FilePolarity,Positive*%
%FSLAX46Y46*%
G04 Gerber Fmt 4.6, Leading zero omitted, Abs format (unit mm)*
G04 Created by KiCad (PCBNEW 10.0.4) date 2026-06-29 13:53:14*
%MOMM*%
%LPD*%
G01*
G04 APERTURE LIST*
%ADD10C,0.100000*%
%ADD11C,0.120000*%
G04 APERTURE END LIST*
D10*
X115353258Y-89457419D02*
X115400877Y-89433609D01*
X115400877Y-89433609D02*
X115472306Y-89433609D01*
X115472306Y-89433609D02*
X115543734Y-89457419D01*
X115543734Y-89457419D02*
X115591353Y-89505038D01*
X115591353Y-89505038D02*
X115615163Y-89552657D01*
X115615163Y-89552657D02*
X115638972Y-89647895D01*
X115638972Y-89647895D02*
X115638972Y-89719323D01*
X115638972Y-89719323D02*
X115615163Y-89814561D01*
X115615163Y-89814561D02*
X115591353Y-89862180D01*
X115591353Y-89862180D02*
X115543734Y-89909800D01*
X115543734Y-89909800D02*
X115472306Y-89933609D01*
X115472306Y-89933609D02*
X115424687Y-89933609D01*
X115424687Y-89933609D02*
X115353258Y-89909800D01*
X115353258Y-89909800D02*
X115329449Y-89885990D01*
X115329449Y-89885990D02*
X115329449Y-89719323D01*
X115329449Y-89719323D02*
X115424687Y-89719323D01*
X115115163Y-89933609D02*
X115115163Y-89433609D01*
X115115163Y-89433609D02*
X114829449Y-89933609D01*
X114829449Y-89933609D02*
X114829449Y-89433609D01*
X114591353Y-89933609D02*
X114591353Y-89433609D01*
X114591353Y-89433609D02*
X114472305Y-89433609D01*
X114472305Y-89433609D02*
X114400877Y-89457419D01*
X114400877Y-89457419D02*
X114353258Y-89505038D01*
X114353258Y-89505038D02*
X114329448Y-89552657D01*
X114329448Y-89552657D02*
X114305639Y-89647895D01*
X114305639Y-89647895D02*
X114305639Y-89719323D01*
X114305639Y-89719323D02*
X114329448Y-89814561D01*
X114329448Y-89814561D02*
X114353258Y-89862180D01*
X114353258Y-89862180D02*
X114400877Y-89909800D01*
X114400877Y-89909800D02*
X114472305Y-89933609D01*
X114472305Y-89933609D02*
X114591353Y-89933609D01*
X118162782Y-89433609D02*
X117853258Y-89433609D01*
X117853258Y-89433609D02*
X118019925Y-89624085D01*
X118019925Y-89624085D02*
X117948496Y-89624085D01*
X117948496Y-89624085D02*
X117900877Y-89647895D01*
X117900877Y-89647895D02*
X117877068Y-89671704D01*
X117877068Y-89671704D02*
X117853258Y-89719323D01*
X117853258Y-89719323D02*
X117853258Y-89838371D01*
X117853258Y-89838371D02*
X117877068Y-89885990D01*
X117877068Y-89885990D02*
X117900877Y-89909800D01*
X117900877Y-89909800D02*
X117948496Y-89933609D01*
X117948496Y-89933609D02*
X118091353Y-89933609D01*
X118091353Y-89933609D02*
X118138972Y-89909800D01*
X118138972Y-89909800D02*
X118162782Y-89885990D01*
X117638973Y-89885990D02*
X117615163Y-89909800D01*
X117615163Y-89909800D02*
X117638973Y-89933609D01*
X117638973Y-89933609D02*
X117662782Y-89909800D01*
X117662782Y-89909800D02*
X117638973Y-89885990D01*
X117638973Y-89885990D02*
X117638973Y-89933609D01*
X117448497Y-89433609D02*
X117138973Y-89433609D01*
X117138973Y-89433609D02*
X117305640Y-89624085D01*
X117305640Y-89624085D02*
X117234211Y-89624085D01*
X117234211Y-89624085D02*
X117186592Y-89647895D01*
X117186592Y-89647895D02*
X117162783Y-89671704D01*
X117162783Y-89671704D02*
X117138973Y-89719323D01*
X117138973Y-89719323D02*
X117138973Y-89838371D01*
X117138973Y-89838371D02*
X117162783Y-89885990D01*
X117162783Y-89885990D02*
X117186592Y-89909800D01*
X117186592Y-89909800D02*
X117234211Y-89933609D01*
X117234211Y-89933609D02*
X117377068Y-89933609D01*
X117377068Y-89933609D02*
X117424687Y-89909800D01*
X117424687Y-89909800D02*
X117448497Y-89885990D01*
X116972307Y-89600276D02*
X116853259Y-89933609D01*
X116853259Y-89933609D02*
X116734212Y-89600276D01*
%TO.C,J3*%
D11*
X110120000Y-61960000D02*
X110120000Y-69690000D01*
X112880000Y-59310000D02*
X111500000Y-59310000D01*
X112880000Y-60690000D02*
X112880000Y-59310000D01*
X112880000Y-61960000D02*
X110120000Y-61960000D01*
X112880000Y-61960000D02*
X112880000Y-69690000D01*
X112880000Y-69690000D02*
X110120000Y-69690000D01*
%TO.C,J4*%
X137120000Y-62230000D02*
X137120000Y-69960000D01*
X139880000Y-59580000D02*
X138500000Y-59580000D01*
X139880000Y-60960000D02*
X139880000Y-59580000D01*
X139880000Y-62230000D02*
X137120000Y-62230000D01*
X139880000Y-62230000D02*
X139880000Y-69960000D01*
X139880000Y-69960000D02*
X137120000Y-69960000D01*
%TD*%
M02*
