M48
; DRILL file KiCad 10.0.4 date 2026-06-29T08:14:52
; FORMAT={-:-/ absolute / metric / decimal}
; #@! TF.CreationDate,2026-06-29T08:14:52-04:00
; #@! TF.GenerationSoftware,Kicad,Pcbnew,10.0.4
; #@! TF.FileFunction,Plated,1,4,PTH
FMAT,2
METRIC
; #@! TA.AperFunction,Plated,PTH,ViaDrill
T1C0.250
; #@! TA.AperFunction,Plated,PTH,ViaDrill
T2C0.300
; #@! TA.AperFunction,Plated,PTH,ComponentDrill
T3C0.600
; #@! TA.AperFunction,Plated,PTH,ComponentDrill
T4C1.000
%
G90
G05
T1
X106.0Y-51.0
X106.0Y-53.0
X106.0Y-55.0
X106.0Y-57.0
X106.0Y-59.0
X106.0Y-70.0
X106.0Y-73.0
X106.0Y-75.0
X106.0Y-77.0
X106.0Y-79.0
X106.0Y-81.0
X106.0Y-83.0
X106.0Y-85.0
X106.0Y-87.0
X106.0Y-89.0
X108.0Y-51.0
X108.0Y-89.0
X108.5Y-73.0
X108.5Y-77.0
X110.0Y-51.0
X110.0Y-89.0
X111.5Y-82.5
X112.0Y-51.0
X112.0Y-53.0
X112.0Y-89.0
X113.0Y-87.0
X114.0Y-58.5
X114.0Y-89.0
X114.5Y-64.0
X116.832Y-61.475
X116.977Y-66.856
X117.004Y-66.207
X117.385Y-68.685
X117.8Y-62.7
X118.0Y-51.0
X118.2Y-102.4
X118.9Y-105.8
X119.4Y-111.8
X119.5Y-59.0
X119.5Y-77.5
X120.16Y-121.84
X120.3Y-80.5
X120.332Y-120.984
X120.4Y-87.7
X120.5Y-55.5
X121.2Y-120.4
X121.8Y-120.0
X122.0Y-102.4
X122.169Y-119.05
X122.4Y-108.3
X122.5Y-57.5
X122.5Y-87.0
X122.527Y-117.18
X122.6Y-82.7
X122.95Y-103.6
X123.0Y-127.4
X123.1Y-77.6
X123.445Y-114.095
X123.475Y-102.8
X123.617Y-127.606
X123.627Y-119.28
X124.0Y-102.2
X124.2Y-71.2
X124.267Y-127.599
X124.277Y-119.18
X124.4Y-80.9
X124.917Y-127.6
X124.927Y-119.18
X125.152Y-63.615
X125.2Y-64.8
X125.4Y-100.4
X125.419Y-116.635
X125.5Y-71.5
X125.5Y-74.9
X125.6Y-127.6
X125.649Y-119.201
X125.773Y-63.424
X125.8Y-83.1
X126.0Y-55.0
X126.1Y-75.2
X126.25Y-127.6
X126.5Y-78.0
X126.5Y-79.5
X126.5Y-81.0
X126.5Y-82.5
X126.527Y-116.08
X126.6Y-105.4
X126.6Y-107.5
X126.659Y-72.496
X126.9Y-111.0
X126.9Y-127.6
X127.071Y-103.071
X127.125Y-105.925
X127.307Y-72.553
X127.8Y-68.7
X127.9Y-126.2
X128.2Y-65.0
X128.504Y-72.375
X129.1Y-100.3
X129.3Y-72.375
X129.35Y-107.642
X129.5Y-69.0
X129.625Y-74.8
X129.875Y-101.4
X129.875Y-112.2
X130.292Y-100.8
X130.5Y-70.5
X130.8Y-80.6
X130.817Y-100.298
X130.9Y-68.5
X131.49Y-80.775
X131.5Y-54.5
X131.5Y-65.0
X131.85Y-100.725
X132.0Y-51.0
X132.25Y-82.759
X132.4Y-100.2
X132.606Y-100.817
X132.9Y-66.7
X133.0Y-67.342
X133.479Y-100.621
X133.8Y-108.1
X133.8Y-108.8
X134.0Y-51.0
X134.0Y-53.0
X134.5Y-55.5
X134.875Y-102.121
X134.875Y-103.1
X134.9Y-100.3
X135.2Y-68.3
X135.238Y-67.518
X135.4Y-100.9
X135.4Y-105.2
X135.763Y-62.3
X136.0Y-51.0
X136.0Y-58.5
X136.5Y-70.5
X137.5Y-74.5
X138.0Y-51.0
X138.0Y-101.3
X139.0Y-74.5
X139.1Y-112.4
X139.2Y-113.8
X139.9Y-101.8
X140.0Y-51.0
X140.5Y-74.5
X142.0Y-51.0
X142.0Y-71.5
X143.9Y-106.2
X144.0Y-51.0
X144.0Y-53.0
X144.0Y-55.0
X144.0Y-57.0
X144.0Y-59.0
X144.0Y-70.0
X144.0Y-72.0
X144.0Y-74.0
X147.725Y-107.4
X148.6Y-106.5
X149.9Y-111.9
X149.959Y-112.596
X150.2Y-113.2
X150.8Y-111.2
X151.0Y-104.6
X151.8Y-104.6
X152.441Y-110.184
X153.6Y-110.6
X154.1Y-113.225
X154.1Y-118.825
X154.871Y-111.129
X155.375Y-112.44
X155.9Y-107.1
X155.9Y-112.9
X156.8Y-113.8
X156.8Y-114.7
X158.8Y-118.5
X159.0Y-109.6
X159.1Y-108.8
X159.7Y-118.6
X160.4Y-112.1
X160.925Y-117.23
X161.2Y-110.1
X161.592Y-117.106
X161.7Y-110.625
X161.979Y-116.021
X162.1Y-116.7
X162.76Y-113.32
X163.4Y-124.3
X163.46Y-109.92
X164.06Y-115.92
X164.1Y-124.3
X164.725Y-115.92
X164.8Y-124.3
X165.375Y-115.92
X165.556Y-124.333
X165.648Y-112.63
X166.025Y-115.92
X166.279Y-124.321
X167.0Y-124.3
X167.06Y-112.12
X167.8Y-123.4
X168.4Y-122.8
X170.26Y-121.62
X178.6Y-98.0
X178.7Y-100.2
X178.7Y-101.3
X178.9Y-93.6
X181.295Y-111.5
T2
X106.0Y-93.0
X106.0Y-95.0
X106.0Y-97.0
X106.0Y-99.0
X106.0Y-101.0
X106.0Y-103.0
X106.0Y-106.0
X106.0Y-109.0
X106.0Y-111.0
X106.0Y-113.0
X106.0Y-117.0
X106.0Y-123.0
X106.0Y-125.0
X106.0Y-127.0
X106.0Y-129.0
X106.0Y-131.0
X108.0Y-93.0
X108.0Y-131.0
X108.5Y-112.0
X109.0Y-122.0
X109.5Y-116.0
X110.0Y-93.0
X110.0Y-131.0
X110.4Y-117.4
X110.8Y-120.8
X111.0Y-102.5
X111.0Y-114.5
X111.4Y-122.6
X111.5Y-106.5
X112.0Y-93.0
X112.0Y-110.0
X112.0Y-131.0
X112.2Y-118.6
X112.4Y-116.6
X113.0Y-121.0
X113.2Y-123.8
X113.6Y-117.8
X114.0Y-93.0
X114.0Y-113.5
X114.2Y-120.4
X114.2Y-122.0
X114.2Y-127.0
X114.4Y-118.6
X114.4Y-123.8
X114.4Y-125.6
X114.6Y-98.1
X114.6Y-115.4
X114.7Y-56.0
X115.0Y-117.0
X115.2Y-74.7
X115.5Y-60.6
X115.6Y-77.3
X115.879Y-62.143
X116.0Y-111.4
X116.2Y-116.2
X116.2Y-121.0
X116.2Y-123.4
X116.2Y-126.2
X116.3Y-127.5
X116.4Y-78.4
X116.8Y-84.9
X116.8Y-89.1
X116.8Y-121.6
X116.8Y-122.8
X116.8Y-124.0
X116.8Y-125.4
X116.8Y-126.8
X117.4Y-70.3
X117.4Y-81.7
X117.5Y-84.9
X117.5Y-89.1
X117.5Y-96.0
X117.6Y-127.2
X117.8Y-104.6
X117.8Y-120.8
X117.8Y-122.2
X117.8Y-126.4
X118.0Y-123.0
X118.0Y-123.8
X118.0Y-124.6
X118.0Y-125.6
X118.1Y-59.4
X118.2Y-84.9
X118.2Y-89.1
X118.2Y-98.1
X118.2Y-118.0
X118.2Y-119.4
X118.2Y-121.6
X118.5Y-70.6
X118.6Y-63.2
X118.8Y-64.5
X118.8Y-121.2
X119.0Y-116.8
X119.0Y-117.4
X119.0Y-118.4
X119.0Y-119.2
X119.0Y-120.2
X119.1Y-60.5
X119.6Y-130.0
X119.8Y-86.3
X120.0Y-100.0
X120.0Y-131.0
X120.2Y-69.4
X120.2Y-125.4
X120.2Y-129.0
X120.3Y-72.3
X120.7Y-112.0
X121.1Y-110.3
X121.2Y-64.3
X121.6Y-129.8
X122.2Y-130.4
X122.4Y-129.2
X122.6Y-73.5
X122.6Y-128.4
X123.2Y-128.8
X123.4Y-129.7
X123.7Y-130.4
X124.0Y-98.0
X124.0Y-128.8
X124.5Y-129.7
X125.0Y-128.8
X125.5Y-88.1
X125.7Y-59.2
X125.8Y-113.0
X126.2Y-109.9
X126.4Y-64.549
X126.5Y-100.2
X127.0Y-104.2
X127.6Y-60.8
X127.8Y-100.2
X127.9Y-127.5
X128.0Y-115.2
X128.0Y-116.0
X128.2Y-114.2
X128.5Y-57.1
X128.6Y-127.0
X128.8Y-102.0
X128.8Y-115.2
X128.815Y-84.1
X129.2Y-122.7
X129.2Y-123.6
X129.2Y-126.4
X129.4Y-114.2
X129.532Y-60.468
X129.6Y-127.2
X130.2Y-122.8
X130.2Y-123.6
X130.2Y-126.4
X130.9Y-119.5
X131.0Y-124.0
X131.0Y-126.0
X131.2Y-122.6
X131.2Y-125.0
X131.2Y-127.0
X131.4Y-123.2
X131.7Y-72.3
X132.216Y-61.098
X132.9Y-64.8
X133.4Y-81.4
X133.5Y-118.6
X133.6Y-117.8
X133.7Y-122.6
X134.0Y-124.2
X134.2Y-118.6
X134.2Y-125.6
X134.2Y-127.4
X134.4Y-117.8
X134.4Y-122.2
X134.6Y-97.4
X134.6Y-123.2
X134.8Y-116.8
X134.8Y-124.6
X135.0Y-93.0
X135.0Y-108.7
X135.0Y-118.6
X135.0Y-121.8
X135.4Y-74.0
X135.4Y-82.2
X135.4Y-117.8
X135.4Y-126.2
X135.6Y-113.0
X135.6Y-115.8
X135.7Y-109.6
X135.8Y-114.2
X135.8Y-116.8
X135.8Y-118.6
X135.838Y-60.8
X136.0Y-121.6
X136.0Y-122.8
X136.2Y-124.0
X136.4Y-74.4
X136.4Y-117.8
X136.4Y-127.4
X136.454Y-63.146
X136.6Y-114.4
X136.6Y-119.0
X136.8Y-121.6
X136.8Y-125.2
X137.2Y-115.4
X137.2Y-118.2
X137.2Y-128.6
X137.4Y-110.5
X137.4Y-116.8
X137.4Y-119.4
X137.4Y-122.6
X137.6Y-94.4
X137.6Y-112.2
X137.6Y-121.6
X137.6Y-126.6
X137.8Y-124.0
X137.8Y-129.4
X138.0Y-93.0
X138.0Y-118.8
X138.0Y-131.0
X138.2Y-99.0
X138.2Y-112.8
X138.2Y-117.8
X138.4Y-116.4
X138.4Y-121.6
X138.6Y-122.6
X138.7Y-108.2
X138.8Y-101.5
X138.8Y-118.6
X138.83Y-104.03
X139.0Y-124.2
X139.1Y-115.4
X139.2Y-121.6
X139.4Y-111.2
X139.4Y-117.6
X139.6Y-118.6
X139.8Y-122.6
X140.0Y-93.0
X140.0Y-121.6
X140.0Y-131.0
X140.2Y-117.0
X140.2Y-123.4
X140.4Y-118.4
X140.6Y-122.2
X140.6Y-124.2
X140.8Y-111.0
X140.8Y-117.8
X140.8Y-123.0
X141.4Y-99.4
X141.4Y-123.4
X141.4Y-124.6
X141.6Y-117.0
X141.6Y-117.8
X141.8Y-129.2
X142.0Y-93.0
X142.0Y-109.2
X142.0Y-131.0
X142.2Y-110.6
X142.2Y-123.4
X142.2Y-125.0
X142.4Y-117.8
X142.526Y-104.386
X142.8Y-117.0
X142.8Y-124.4
X142.8Y-126.0
X143.0Y-109.8
X143.0Y-123.4
X143.2Y-117.8
X143.6Y-125.2
X143.8Y-101.4
X143.8Y-117.0
X143.8Y-123.4
X143.8Y-126.6
X144.0Y-93.0
X144.0Y-95.0
X144.0Y-97.0
X144.0Y-99.0
X144.0Y-117.8
X144.0Y-124.2
X144.0Y-129.0
X144.0Y-131.0
X144.2Y-118.6
X144.2Y-122.8
X147.975Y-118.5
X148.0Y-93.0
X148.0Y-95.0
X148.0Y-97.0
X148.0Y-99.0
X148.0Y-101.0
X148.0Y-103.0
X148.0Y-105.0
X148.0Y-121.0
X148.0Y-123.0
X148.0Y-125.0
X148.0Y-127.0
X148.0Y-129.0
X148.0Y-131.0
X149.1Y-120.0
X149.3Y-98.5
X150.0Y-93.0
X150.0Y-123.5
X150.0Y-131.0
X150.7Y-102.2
X150.8Y-107.5
X150.9Y-121.4
X151.3Y-130.4
X151.4Y-94.1
X151.9Y-119.8
X152.0Y-93.0
X152.0Y-131.0
X152.1Y-107.6
X152.3Y-112.0
X152.3Y-122.7
X152.7Y-117.6
X153.1Y-121.2
X153.2Y-112.9
X153.9Y-103.7
X154.0Y-93.0
X154.0Y-131.0
X154.1Y-108.2
X154.2Y-100.7
X154.2Y-128.9
X154.4Y-122.3
X154.7Y-116.1
X154.8Y-96.4
X155.2Y-117.4
X155.4Y-118.7
X155.5Y-120.3
X155.5Y-123.4
X155.7Y-130.0
X155.8Y-127.8
X155.9Y-94.3
X156.0Y-93.0
X156.0Y-131.0
X156.1Y-126.1
X156.2Y-119.5
X156.3Y-53.25
X156.3Y-53.85
X156.3Y-54.45
X156.3Y-55.05
X156.3Y-55.65
X156.3Y-56.25
X156.3Y-123.9
X156.5Y-121.1
X156.6Y-60.4
X156.6Y-61.0
X156.6Y-61.6
X156.6Y-71.9
X156.6Y-72.5
X156.6Y-73.1
X156.6Y-78.4
X156.6Y-79.0
X156.6Y-79.6
X156.6Y-98.5
X156.9Y-53.25
X156.9Y-53.85
X156.9Y-54.45
X156.9Y-55.05
X156.9Y-55.65
X156.9Y-56.25
X156.9Y-120.2
X156.9Y-127.4
X156.9Y-128.7
X157.0Y-101.8
X157.0Y-124.7
X157.1Y-122.0
X157.2Y-60.4
X157.2Y-61.0
X157.2Y-61.6
X157.2Y-71.9
X157.2Y-72.5
X157.2Y-73.1
X157.2Y-78.4
X157.2Y-79.0
X157.2Y-79.6
X157.3Y-130.5
X157.5Y-53.25
X157.5Y-53.85
X157.5Y-54.45
X157.5Y-55.05
X157.5Y-55.65
X157.5Y-56.25
X157.6Y-121.1
X157.8Y-60.4
X157.8Y-61.0
X157.8Y-61.6
X157.8Y-71.9
X157.8Y-72.5
X157.8Y-73.1
X157.8Y-78.4
X157.8Y-79.0
X157.8Y-79.6
X157.8Y-125.3
X157.9Y-128.3
X158.0Y-93.0
X158.0Y-122.4
X158.0Y-129.1
X158.2Y-130.9
X158.4Y-60.4
X158.4Y-61.0
X158.4Y-61.6
X158.4Y-71.9
X158.4Y-72.5
X158.4Y-73.1
X158.4Y-78.4
X158.4Y-79.0
X158.4Y-79.6
X158.4Y-121.5
X158.4Y-126.1
X158.5Y-96.8
X158.5Y-123.1
X158.6Y-95.4
X158.7Y-99.3
X158.8Y-93.8
X158.9Y-129.2
X159.0Y-60.4
X159.0Y-61.0
X159.0Y-61.6
X159.0Y-71.9
X159.0Y-72.5
X159.0Y-73.1
X159.0Y-78.4
X159.0Y-79.0
X159.0Y-79.6
X159.1Y-127.1
X159.4Y-112.2
X159.6Y-60.4
X159.6Y-61.0
X159.6Y-61.6
X159.6Y-71.9
X159.6Y-72.5
X159.6Y-73.1
X159.6Y-78.4
X159.6Y-79.0
X159.6Y-79.6
X159.6Y-124.6
X159.7Y-101.3
X159.8Y-98.3
X160.0Y-93.0
X160.0Y-96.4
X160.0Y-103.8
X160.2Y-84.15
X160.2Y-84.75
X160.2Y-85.35
X160.2Y-85.95
X160.2Y-86.55
X160.2Y-87.15
X160.2Y-94.6
X160.561Y-122.417
X160.8Y-84.15
X160.8Y-84.75
X160.8Y-85.35
X160.8Y-85.95
X160.8Y-86.55
X160.8Y-87.15
X160.8Y-108.0
X161.2Y-97.4
X161.3Y-94.7
X161.4Y-84.15
X161.4Y-84.75
X161.4Y-85.35
X161.4Y-85.95
X161.4Y-86.55
X161.4Y-87.15
X161.4Y-93.8
X161.4Y-95.6
X161.4Y-100.1
X161.7Y-98.5
X161.8Y-126.2
X162.0Y-93.2
X162.1Y-96.0
X162.1Y-96.8
X162.3Y-103.7
X162.5Y-109.2
X162.5Y-126.1
X162.6Y-97.5
X162.6Y-101.9
X162.7Y-99.1
X162.8Y-60.5
X162.8Y-61.1
X162.8Y-61.7
X162.8Y-62.3
X162.8Y-62.9
X162.8Y-63.5
X162.8Y-125.0
X162.8Y-126.8
X162.9Y-101.1
X163.0Y-98.4
X163.0Y-103.0
X163.2Y-125.5
X163.4Y-60.5
X163.4Y-61.1
X163.4Y-61.7
X163.4Y-62.3
X163.4Y-62.9
X163.4Y-63.5
X163.4Y-97.5
X163.438Y-69.5
X163.5Y-108.1
X163.8Y-99.9
X163.8Y-126.2
X164.0Y-60.5
X164.0Y-61.1
X164.0Y-61.7
X164.0Y-62.3
X164.0Y-62.9
X164.0Y-63.5
X164.0Y-102.4
X164.0Y-125.5
X164.0Y-127.1
X164.2Y-97.5
X164.2Y-101.4
X164.2Y-103.6
X164.438Y-69.5
X164.5Y-98.8
X164.7Y-125.5
X164.8Y-126.4
X164.9Y-99.8
X165.1Y-97.4
X165.1Y-103.7
X165.3Y-100.8
X165.5Y-125.5
X165.5Y-127.7
X165.8Y-126.4
X166.0Y-97.3
X166.1Y-98.3
X166.1Y-99.2
X166.1Y-100.1
X166.1Y-103.9
X166.4Y-108.2
X166.4Y-125.5
X166.46Y-113.3
X166.5Y-130.9
X166.9Y-110.4
X166.9Y-127.6
X167.0Y-103.9
X167.0Y-109.4
X167.1Y-126.3
X167.3Y-125.3
X167.5Y-111.0
X167.8Y-113.2
X168.0Y-103.9
X168.0Y-111.5
X168.0Y-112.4
X168.0Y-125.9
X168.1Y-125.0
X168.1Y-127.3
X168.3Y-108.9
X168.3Y-110.2
X168.329Y-68.971
X168.36Y-116.42
X168.377Y-69.6
X168.475Y-65.5
X168.5Y-113.7
X168.7Y-110.9
X168.7Y-112.9
X168.7Y-124.3
X168.9Y-125.5
X169.2Y-111.8
X169.2Y-113.4
X169.2Y-114.3
X169.3Y-127.2
X169.4Y-126.3
X169.5Y-103.9
X169.5Y-110.0
X169.6Y-93.0
X169.6Y-116.7
X169.6Y-124.9
X169.8Y-110.9
X169.9Y-115.0
X170.0Y-114.1
X170.0Y-117.5
X170.1Y-95.9
X170.2Y-108.3
X170.2Y-115.8
X170.4Y-98.6
X170.4Y-100.4
X170.5Y-93.0
X170.5Y-101.9
X170.5Y-103.8
X170.5Y-112.7
X170.5Y-116.5
X170.5Y-125.8
X170.5Y-127.1
X170.7Y-94.1
X170.7Y-111.5
X170.8Y-117.5
X170.9Y-114.6
X171.0Y-97.2
X171.0Y-115.4
X171.2Y-113.5
X171.4Y-116.7
X171.5Y-93.0
X171.5Y-95.9
X171.5Y-117.8
X171.6Y-103.8
X171.8Y-94.7
X171.8Y-114.5
X171.9Y-109.8
X171.9Y-115.9
X172.0Y-99.8
X172.1Y-117.1
X172.1Y-118.4
X172.3Y-101.7
X172.3Y-123.1
X172.4Y-93.0
X172.455Y-98.341
X172.5Y-113.1
X172.5Y-122.4
X172.6Y-52.9
X172.6Y-53.5
X172.6Y-54.1
X172.6Y-54.7
X172.6Y-55.3
X172.6Y-55.9
X172.7Y-121.6
X172.8Y-103.7
X172.9Y-118.7
X173.0Y-97.3
X173.0Y-116.1
X173.0Y-117.1
X173.2Y-52.9
X173.2Y-53.5
X173.2Y-54.1
X173.2Y-54.7
X173.2Y-55.3
X173.2Y-55.9
X173.2Y-94.0
X173.2Y-111.2
X173.2Y-117.8
X173.2Y-124.7
X173.3Y-93.0
X173.4Y-113.9
X173.4Y-121.9
X173.4Y-122.8
X173.5Y-96.0
X173.7Y-118.8
X173.8Y-52.9
X173.8Y-53.5
X173.8Y-54.1
X173.8Y-54.7
X173.8Y-55.3
X173.8Y-55.9
X173.8Y-100.7
X174.1Y-95.0
X174.1Y-102.1
X174.1Y-103.8
X174.2Y-122.9
X174.3Y-93.0
X174.3Y-97.4
X174.3Y-98.9
X174.3Y-116.0
X174.3Y-117.5
X174.4Y-52.9
X174.4Y-53.5
X174.4Y-54.1
X174.4Y-54.7
X174.4Y-55.3
X174.4Y-55.9
X174.4Y-66.9
X174.4Y-67.5
X174.4Y-68.1
X174.4Y-71.9
X174.4Y-72.5
X174.4Y-73.1
X174.5Y-118.8
X174.6Y-126.0
X174.8Y-94.0
X174.8Y-124.1
X174.9Y-96.2
X175.0Y-52.9
X175.0Y-53.5
X175.0Y-54.1
X175.0Y-54.7
X175.0Y-55.3
X175.0Y-55.9
X175.0Y-66.9
X175.0Y-67.5
X175.0Y-68.1
X175.0Y-71.9
X175.0Y-72.5
X175.0Y-73.1
X175.1Y-122.9
X175.2Y-93.0
X175.3Y-117.0
X175.3Y-118.7
X175.6Y-52.9
X175.6Y-53.5
X175.6Y-54.1
X175.6Y-54.7
X175.6Y-55.3
X175.6Y-55.9
X175.6Y-66.9
X175.6Y-67.5
X175.6Y-68.1
X175.6Y-71.9
X175.6Y-72.5
X175.6Y-73.1
X175.6Y-115.9
X175.7Y-114.5
X175.855Y-95.255
X175.9Y-122.8
X175.9Y-123.7
X175.9Y-125.1
X176.0Y-117.7
X176.0Y-118.8
X176.0Y-127.4
X176.2Y-66.9
X176.2Y-67.5
X176.2Y-68.1
X176.2Y-71.9
X176.2Y-72.5
X176.2Y-73.1
X176.6Y-119.3
X176.8Y-66.9
X176.8Y-67.5
X176.8Y-68.1
X176.8Y-71.9
X176.8Y-72.5
X176.8Y-73.1
X176.8Y-122.8
X176.9Y-116.4
X176.9Y-124.1
X177.3Y-119.6
X177.4Y-66.9
X177.4Y-67.5
X177.4Y-68.1
X177.4Y-71.9
X177.4Y-72.5
X177.4Y-73.1
X177.4Y-117.1
X177.4Y-118.8
X177.5Y-105.3
X177.6Y-126.5
X177.7Y-122.7
X177.9Y-117.9
X178.0Y-114.5
X178.0Y-131.0
X178.2Y-111.5
X178.3Y-104.5
X178.3Y-119.6
X178.4Y-122.3
X178.6Y-116.2
X178.6Y-123.1
X178.6Y-125.0
X178.7Y-117.3
X178.8Y-94.9
X178.8Y-124.0
X178.9Y-96.3
X178.9Y-127.5
X179.0Y-121.8
X179.2Y-119.6
X179.3Y-122.6
X179.4Y-118.5
X179.8Y-129.6
X179.9Y-113.1
X180.0Y-93.0
X180.0Y-103.9
X180.0Y-116.6
X180.0Y-119.6
X180.0Y-122.7
X180.0Y-123.5
X180.0Y-131.0
X180.1Y-102.8
X180.2Y-115.0
X180.2Y-117.7
X180.5Y-81.3
X180.5Y-81.9
X180.5Y-82.5
X180.6Y-98.9
X180.6Y-124.8
X180.7Y-94.9
X180.7Y-101.2
X180.7Y-102.2
X180.7Y-118.6
X180.8Y-93.5
X180.8Y-119.5
X180.8Y-122.8
X180.9Y-105.4
X181.1Y-81.3
X181.1Y-81.9
X181.1Y-82.5
X181.1Y-99.6
X181.195Y-114.7
X181.2Y-94.3
X181.2Y-103.3
X181.2Y-116.6
X181.2Y-123.5
X181.4Y-100.6
X181.6Y-117.7
X181.6Y-119.4
X181.7Y-81.3
X181.7Y-81.9
X181.7Y-82.5
X181.8Y-122.9
X181.9Y-118.6
X182.0Y-93.0
X182.0Y-131.0
X182.1Y-94.6
X182.1Y-102.6
X182.1Y-109.0
X182.3Y-81.3
X182.3Y-81.9
X182.3Y-82.5
X182.3Y-99.3
X182.4Y-118.2
X182.5Y-117.1
X182.5Y-123.4
X182.5Y-124.1
X182.5Y-129.4
X182.7Y-101.5
X182.9Y-81.3
X182.9Y-81.9
X182.9Y-82.5
X183.1Y-94.2
X183.1Y-116.2
X183.2Y-118.0
X183.4Y-123.4
X183.5Y-81.3
X183.5Y-81.9
X183.5Y-82.5
X183.5Y-103.4
X183.8Y-124.2
X184.0Y-93.0
X184.0Y-120.7
X184.0Y-131.0
X184.1Y-99.5
X184.1Y-117.8
X184.2Y-117.0
X184.3Y-93.8
X184.3Y-94.9
X184.3Y-105.4
X184.3Y-123.5
X184.4Y-97.3
X184.4Y-128.9
X184.5Y-101.2
X184.8Y-124.3
X184.9Y-126.5
X185.0Y-96.2
X185.1Y-108.9
X185.1Y-117.8
X185.1Y-123.5
X185.3Y-116.4
X185.7Y-123.2
X185.9Y-117.2
X186.0Y-93.0
X186.0Y-95.0
X186.0Y-97.0
X186.0Y-99.0
X186.0Y-101.0
X186.0Y-103.0
X186.0Y-105.0
X186.0Y-107.0
X186.0Y-109.0
X186.0Y-125.0
X186.0Y-127.0
X186.0Y-129.0
X186.0Y-131.0
X186.1Y-118.2
X186.1Y-119.2
X186.1Y-122.5
X186.2Y-123.9
T4
X107.5Y-60.69
X107.5Y-63.23
X107.5Y-65.77
X107.5Y-68.31
X111.5Y-60.69
X111.5Y-63.23
X111.5Y-65.77
X111.5Y-68.31
X115.135Y-130.4
X115.84Y-94.0
X117.675Y-130.4
X118.38Y-94.0
X119.92Y-52.5
X120.92Y-94.0
X122.46Y-52.5
X123.46Y-94.0
X125.0Y-52.5
X126.0Y-94.0
X127.19Y-130.0
X127.54Y-52.5
X128.54Y-94.0
X129.73Y-130.0
X130.08Y-52.5
X131.08Y-94.0
X132.27Y-130.0
X133.62Y-94.0
X134.81Y-130.0
X138.5Y-60.96
X138.5Y-63.5
X138.5Y-66.04
X138.5Y-68.58
X142.5Y-60.92
X142.5Y-63.46
X142.5Y-66.0
X142.5Y-68.54
X142.5Y-74.5
X142.5Y-77.04
X161.0Y-130.0
X163.54Y-130.0
X169.0Y-130.0
X171.54Y-130.0
X174.08Y-130.0
X176.62Y-130.0
T3
G00X107.25Y-71.18
M15
G01X106.65Y-71.18
M16
G05
G00X107.25Y-79.82
M15
G01X106.65Y-79.82
M16
G05
G00X111.68Y-71.18
M15
G01X110.58Y-71.18
M16
G05
G00X111.68Y-79.82
M15
G01X110.58Y-79.82
M16
G05
M30
