%TF.GenerationSoftware,KiCad,Pcbnew,10.0.4*%
%TF.CreationDate,2026-06-29T13:53:14-04:00*%
%TF.ProjectId,production-pcb,70726f64-7563-4746-996f-6e2d7063622e,rev?*%
%TF.SameCoordinates,Original*%
%TF.FileFunction,AssemblyDrawing,Bot*%
%FSLAX46Y46*%
G04 Gerber Fmt 4.6, Leading zero omitted, Abs format (unit mm)*
G04 Created by KiCad (PCBNEW 10.0.4) date 2026-06-29 13:53:14*
%MOMM*%
%LPD*%
G01*
G04 APERTURE LIST*
%ADD10C,0.150000*%
%ADD11C,0.100000*%
G04 APERTURE END LIST*
D10*
X115238095Y-71049580D02*
X115285714Y-71097200D01*
X115285714Y-71097200D02*
X115428571Y-71144819D01*
X115428571Y-71144819D02*
X115523809Y-71144819D01*
X115523809Y-71144819D02*
X115666666Y-71097200D01*
X115666666Y-71097200D02*
X115761904Y-71001961D01*
X115761904Y-71001961D02*
X115809523Y-70906723D01*
X115809523Y-70906723D02*
X115857142Y-70716247D01*
X115857142Y-70716247D02*
X115857142Y-70573390D01*
X115857142Y-70573390D02*
X115809523Y-70382914D01*
X115809523Y-70382914D02*
X115761904Y-70287676D01*
X115761904Y-70287676D02*
X115666666Y-70192438D01*
X115666666Y-70192438D02*
X115523809Y-70144819D01*
X115523809Y-70144819D02*
X115428571Y-70144819D01*
X115428571Y-70144819D02*
X115285714Y-70192438D01*
X115285714Y-70192438D02*
X115238095Y-70240057D01*
X114666666Y-71144819D02*
X114761904Y-71097200D01*
X114761904Y-71097200D02*
X114809523Y-71049580D01*
X114809523Y-71049580D02*
X114857142Y-70954342D01*
X114857142Y-70954342D02*
X114857142Y-70668628D01*
X114857142Y-70668628D02*
X114809523Y-70573390D01*
X114809523Y-70573390D02*
X114761904Y-70525771D01*
X114761904Y-70525771D02*
X114666666Y-70478152D01*
X114666666Y-70478152D02*
X114523809Y-70478152D01*
X114523809Y-70478152D02*
X114428571Y-70525771D01*
X114428571Y-70525771D02*
X114380952Y-70573390D01*
X114380952Y-70573390D02*
X114333333Y-70668628D01*
X114333333Y-70668628D02*
X114333333Y-70954342D01*
X114333333Y-70954342D02*
X114380952Y-71049580D01*
X114380952Y-71049580D02*
X114428571Y-71097200D01*
X114428571Y-71097200D02*
X114523809Y-71144819D01*
X114523809Y-71144819D02*
X114666666Y-71144819D01*
X113904761Y-70478152D02*
X113904761Y-71144819D01*
X113904761Y-70573390D02*
X113857142Y-70525771D01*
X113857142Y-70525771D02*
X113761904Y-70478152D01*
X113761904Y-70478152D02*
X113619047Y-70478152D01*
X113619047Y-70478152D02*
X113523809Y-70525771D01*
X113523809Y-70525771D02*
X113476190Y-70621009D01*
X113476190Y-70621009D02*
X113476190Y-71144819D01*
X112999999Y-70478152D02*
X112999999Y-71144819D01*
X112999999Y-70573390D02*
X112952380Y-70525771D01*
X112952380Y-70525771D02*
X112857142Y-70478152D01*
X112857142Y-70478152D02*
X112714285Y-70478152D01*
X112714285Y-70478152D02*
X112619047Y-70525771D01*
X112619047Y-70525771D02*
X112571428Y-70621009D01*
X112571428Y-70621009D02*
X112571428Y-71144819D01*
X112333333Y-71240057D02*
X111571428Y-71240057D01*
X111142856Y-70144819D02*
X111047618Y-70144819D01*
X111047618Y-70144819D02*
X110952380Y-70192438D01*
X110952380Y-70192438D02*
X110904761Y-70240057D01*
X110904761Y-70240057D02*
X110857142Y-70335295D01*
X110857142Y-70335295D02*
X110809523Y-70525771D01*
X110809523Y-70525771D02*
X110809523Y-70763866D01*
X110809523Y-70763866D02*
X110857142Y-70954342D01*
X110857142Y-70954342D02*
X110904761Y-71049580D01*
X110904761Y-71049580D02*
X110952380Y-71097200D01*
X110952380Y-71097200D02*
X111047618Y-71144819D01*
X111047618Y-71144819D02*
X111142856Y-71144819D01*
X111142856Y-71144819D02*
X111238094Y-71097200D01*
X111238094Y-71097200D02*
X111285713Y-71049580D01*
X111285713Y-71049580D02*
X111333332Y-70954342D01*
X111333332Y-70954342D02*
X111380951Y-70763866D01*
X111380951Y-70763866D02*
X111380951Y-70525771D01*
X111380951Y-70525771D02*
X111333332Y-70335295D01*
X111333332Y-70335295D02*
X111285713Y-70240057D01*
X111285713Y-70240057D02*
X111238094Y-70192438D01*
X111238094Y-70192438D02*
X111142856Y-70144819D01*
X109857142Y-71144819D02*
X110428570Y-71144819D01*
X110142856Y-71144819D02*
X110142856Y-70144819D01*
X110142856Y-70144819D02*
X110238094Y-70287676D01*
X110238094Y-70287676D02*
X110333332Y-70382914D01*
X110333332Y-70382914D02*
X110428570Y-70430533D01*
X109523808Y-71144819D02*
X108999999Y-70478152D01*
X109523808Y-70478152D02*
X108999999Y-71144819D01*
X108428570Y-70144819D02*
X108333332Y-70144819D01*
X108333332Y-70144819D02*
X108238094Y-70192438D01*
X108238094Y-70192438D02*
X108190475Y-70240057D01*
X108190475Y-70240057D02*
X108142856Y-70335295D01*
X108142856Y-70335295D02*
X108095237Y-70525771D01*
X108095237Y-70525771D02*
X108095237Y-70763866D01*
X108095237Y-70763866D02*
X108142856Y-70954342D01*
X108142856Y-70954342D02*
X108190475Y-71049580D01*
X108190475Y-71049580D02*
X108238094Y-71097200D01*
X108238094Y-71097200D02*
X108333332Y-71144819D01*
X108333332Y-71144819D02*
X108428570Y-71144819D01*
X108428570Y-71144819D02*
X108523808Y-71097200D01*
X108523808Y-71097200D02*
X108571427Y-71049580D01*
X108571427Y-71049580D02*
X108619046Y-70954342D01*
X108619046Y-70954342D02*
X108666665Y-70763866D01*
X108666665Y-70763866D02*
X108666665Y-70525771D01*
X108666665Y-70525771D02*
X108619046Y-70335295D01*
X108619046Y-70335295D02*
X108571427Y-70240057D01*
X108571427Y-70240057D02*
X108523808Y-70192438D01*
X108523808Y-70192438D02*
X108428570Y-70144819D01*
X107238094Y-70478152D02*
X107238094Y-71144819D01*
X107476189Y-70097200D02*
X107714284Y-70811485D01*
X107714284Y-70811485D02*
X107095237Y-70811485D01*
X110954819Y-64166666D02*
X111669104Y-64166666D01*
X111669104Y-64166666D02*
X111811961Y-64119047D01*
X111811961Y-64119047D02*
X111907200Y-64023809D01*
X111907200Y-64023809D02*
X111954819Y-63880952D01*
X111954819Y-63880952D02*
X111954819Y-63785714D01*
X110954819Y-64547619D02*
X110954819Y-65166666D01*
X110954819Y-65166666D02*
X111335771Y-64833333D01*
X111335771Y-64833333D02*
X111335771Y-64976190D01*
X111335771Y-64976190D02*
X111383390Y-65071428D01*
X111383390Y-65071428D02*
X111431009Y-65119047D01*
X111431009Y-65119047D02*
X111526247Y-65166666D01*
X111526247Y-65166666D02*
X111764342Y-65166666D01*
X111764342Y-65166666D02*
X111859580Y-65119047D01*
X111859580Y-65119047D02*
X111907200Y-65071428D01*
X111907200Y-65071428D02*
X111954819Y-64976190D01*
X111954819Y-64976190D02*
X111954819Y-64690476D01*
X111954819Y-64690476D02*
X111907200Y-64595238D01*
X111907200Y-64595238D02*
X111859580Y-64547619D01*
X142238095Y-71319580D02*
X142285714Y-71367200D01*
X142285714Y-71367200D02*
X142428571Y-71414819D01*
X142428571Y-71414819D02*
X142523809Y-71414819D01*
X142523809Y-71414819D02*
X142666666Y-71367200D01*
X142666666Y-71367200D02*
X142761904Y-71271961D01*
X142761904Y-71271961D02*
X142809523Y-71176723D01*
X142809523Y-71176723D02*
X142857142Y-70986247D01*
X142857142Y-70986247D02*
X142857142Y-70843390D01*
X142857142Y-70843390D02*
X142809523Y-70652914D01*
X142809523Y-70652914D02*
X142761904Y-70557676D01*
X142761904Y-70557676D02*
X142666666Y-70462438D01*
X142666666Y-70462438D02*
X142523809Y-70414819D01*
X142523809Y-70414819D02*
X142428571Y-70414819D01*
X142428571Y-70414819D02*
X142285714Y-70462438D01*
X142285714Y-70462438D02*
X142238095Y-70510057D01*
X141666666Y-71414819D02*
X141761904Y-71367200D01*
X141761904Y-71367200D02*
X141809523Y-71319580D01*
X141809523Y-71319580D02*
X141857142Y-71224342D01*
X141857142Y-71224342D02*
X141857142Y-70938628D01*
X141857142Y-70938628D02*
X141809523Y-70843390D01*
X141809523Y-70843390D02*
X141761904Y-70795771D01*
X141761904Y-70795771D02*
X141666666Y-70748152D01*
X141666666Y-70748152D02*
X141523809Y-70748152D01*
X141523809Y-70748152D02*
X141428571Y-70795771D01*
X141428571Y-70795771D02*
X141380952Y-70843390D01*
X141380952Y-70843390D02*
X141333333Y-70938628D01*
X141333333Y-70938628D02*
X141333333Y-71224342D01*
X141333333Y-71224342D02*
X141380952Y-71319580D01*
X141380952Y-71319580D02*
X141428571Y-71367200D01*
X141428571Y-71367200D02*
X141523809Y-71414819D01*
X141523809Y-71414819D02*
X141666666Y-71414819D01*
X140904761Y-70748152D02*
X140904761Y-71414819D01*
X140904761Y-70843390D02*
X140857142Y-70795771D01*
X140857142Y-70795771D02*
X140761904Y-70748152D01*
X140761904Y-70748152D02*
X140619047Y-70748152D01*
X140619047Y-70748152D02*
X140523809Y-70795771D01*
X140523809Y-70795771D02*
X140476190Y-70891009D01*
X140476190Y-70891009D02*
X140476190Y-71414819D01*
X139999999Y-70748152D02*
X139999999Y-71414819D01*
X139999999Y-70843390D02*
X139952380Y-70795771D01*
X139952380Y-70795771D02*
X139857142Y-70748152D01*
X139857142Y-70748152D02*
X139714285Y-70748152D01*
X139714285Y-70748152D02*
X139619047Y-70795771D01*
X139619047Y-70795771D02*
X139571428Y-70891009D01*
X139571428Y-70891009D02*
X139571428Y-71414819D01*
X139333333Y-71510057D02*
X138571428Y-71510057D01*
X138142856Y-70414819D02*
X138047618Y-70414819D01*
X138047618Y-70414819D02*
X137952380Y-70462438D01*
X137952380Y-70462438D02*
X137904761Y-70510057D01*
X137904761Y-70510057D02*
X137857142Y-70605295D01*
X137857142Y-70605295D02*
X137809523Y-70795771D01*
X137809523Y-70795771D02*
X137809523Y-71033866D01*
X137809523Y-71033866D02*
X137857142Y-71224342D01*
X137857142Y-71224342D02*
X137904761Y-71319580D01*
X137904761Y-71319580D02*
X137952380Y-71367200D01*
X137952380Y-71367200D02*
X138047618Y-71414819D01*
X138047618Y-71414819D02*
X138142856Y-71414819D01*
X138142856Y-71414819D02*
X138238094Y-71367200D01*
X138238094Y-71367200D02*
X138285713Y-71319580D01*
X138285713Y-71319580D02*
X138333332Y-71224342D01*
X138333332Y-71224342D02*
X138380951Y-71033866D01*
X138380951Y-71033866D02*
X138380951Y-70795771D01*
X138380951Y-70795771D02*
X138333332Y-70605295D01*
X138333332Y-70605295D02*
X138285713Y-70510057D01*
X138285713Y-70510057D02*
X138238094Y-70462438D01*
X138238094Y-70462438D02*
X138142856Y-70414819D01*
X136857142Y-71414819D02*
X137428570Y-71414819D01*
X137142856Y-71414819D02*
X137142856Y-70414819D01*
X137142856Y-70414819D02*
X137238094Y-70557676D01*
X137238094Y-70557676D02*
X137333332Y-70652914D01*
X137333332Y-70652914D02*
X137428570Y-70700533D01*
X136523808Y-71414819D02*
X135999999Y-70748152D01*
X136523808Y-70748152D02*
X135999999Y-71414819D01*
X135428570Y-70414819D02*
X135333332Y-70414819D01*
X135333332Y-70414819D02*
X135238094Y-70462438D01*
X135238094Y-70462438D02*
X135190475Y-70510057D01*
X135190475Y-70510057D02*
X135142856Y-70605295D01*
X135142856Y-70605295D02*
X135095237Y-70795771D01*
X135095237Y-70795771D02*
X135095237Y-71033866D01*
X135095237Y-71033866D02*
X135142856Y-71224342D01*
X135142856Y-71224342D02*
X135190475Y-71319580D01*
X135190475Y-71319580D02*
X135238094Y-71367200D01*
X135238094Y-71367200D02*
X135333332Y-71414819D01*
X135333332Y-71414819D02*
X135428570Y-71414819D01*
X135428570Y-71414819D02*
X135523808Y-71367200D01*
X135523808Y-71367200D02*
X135571427Y-71319580D01*
X135571427Y-71319580D02*
X135619046Y-71224342D01*
X135619046Y-71224342D02*
X135666665Y-71033866D01*
X135666665Y-71033866D02*
X135666665Y-70795771D01*
X135666665Y-70795771D02*
X135619046Y-70605295D01*
X135619046Y-70605295D02*
X135571427Y-70510057D01*
X135571427Y-70510057D02*
X135523808Y-70462438D01*
X135523808Y-70462438D02*
X135428570Y-70414819D01*
X134238094Y-70748152D02*
X134238094Y-71414819D01*
X134476189Y-70367200D02*
X134714284Y-71081485D01*
X134714284Y-71081485D02*
X134095237Y-71081485D01*
X137954819Y-64436666D02*
X138669104Y-64436666D01*
X138669104Y-64436666D02*
X138811961Y-64389047D01*
X138811961Y-64389047D02*
X138907200Y-64293809D01*
X138907200Y-64293809D02*
X138954819Y-64150952D01*
X138954819Y-64150952D02*
X138954819Y-64055714D01*
X138288152Y-65341428D02*
X138954819Y-65341428D01*
X137907200Y-65103333D02*
X138621485Y-64865238D01*
X138621485Y-64865238D02*
X138621485Y-65484285D01*
%TO.C,J3*%
D11*
X110230000Y-59420000D02*
X110230000Y-69580000D01*
X110230000Y-69580000D02*
X112770000Y-69580000D01*
X112135000Y-59420000D02*
X110230000Y-59420000D01*
X112770000Y-60055000D02*
X112135000Y-59420000D01*
X112770000Y-69580000D02*
X112770000Y-60055000D01*
%TO.C,J4*%
X137230000Y-59690000D02*
X137230000Y-69850000D01*
X137230000Y-69850000D02*
X139770000Y-69850000D01*
X139135000Y-59690000D02*
X137230000Y-59690000D01*
X139770000Y-60325000D02*
X139135000Y-59690000D01*
X139770000Y-69850000D02*
X139770000Y-60325000D01*
%TD*%
M02*
