%TF.GenerationSoftware,KiCad,Pcbnew,10.0.4*%
%TF.CreationDate,2026-06-29T13:53:14-04:00*%
%TF.ProjectId,production-pcb,70726f64-7563-4746-996f-6e2d7063622e,rev?*%
%TF.SameCoordinates,Original*%
%TF.FileFunction,Paste,Top*%
%TF.FilePolarity,Positive*%
%FSLAX46Y46*%
G04 Gerber Fmt 4.6, Leading zero omitted, Abs format (unit mm)*
G04 Created by KiCad (PCBNEW 10.0.4) date 2026-06-29 13:53:14*
%MOMM*%
%LPD*%
G01*
G04 APERTURE LIST*
G04 Aperture macros list*
%AMRoundRect*
0 Rectangle with rounded corners*
0 $1 Rounding radius*
0 $2 $3 $4 $5 $6 $7 $8 $9 X,Y pos of 4 corners*
0 Add a 4 corners polygon primitive as box body*
4,1,4,$2,$3,$4,$5,$6,$7,$8,$9,$2,$3,0*
0 Add four circle primitives for the rounded corners*
1,1,$1+$1,$2,$3*
1,1,$1+$1,$4,$5*
1,1,$1+$1,$6,$7*
1,1,$1+$1,$8,$9*
0 Add four rect primitives between the rounded corners*
20,1,$1+$1,$2,$3,$4,$5,0*
20,1,$1+$1,$4,$5,$6,$7,0*
20,1,$1+$1,$6,$7,$8,$9,0*
20,1,$1+$1,$8,$9,$2,$3,0*%
G04 Aperture macros list end*
%ADD10RoundRect,0.150000X-0.575000X0.150000X-0.575000X-0.150000X0.575000X-0.150000X0.575000X0.150000X0*%
%ADD11RoundRect,0.075000X-0.650000X0.075000X-0.650000X-0.075000X0.650000X-0.075000X0.650000X0.075000X0*%
%ADD12RoundRect,0.140000X-0.140000X-0.170000X0.140000X-0.170000X0.140000X0.170000X-0.140000X0.170000X0*%
%ADD13RoundRect,0.147500X-0.147500X-0.172500X0.147500X-0.172500X0.147500X0.172500X-0.147500X0.172500X0*%
%ADD14R,0.450000X0.300000*%
%ADD15R,0.300000X0.450000*%
%ADD16RoundRect,0.225000X0.225000X0.250000X-0.225000X0.250000X-0.225000X-0.250000X0.225000X-0.250000X0*%
%ADD17RoundRect,0.140000X0.170000X-0.140000X0.170000X0.140000X-0.170000X0.140000X-0.170000X-0.140000X0*%
%ADD18RoundRect,0.135000X-0.135000X-0.185000X0.135000X-0.185000X0.135000X0.185000X-0.135000X0.185000X0*%
%ADD19RoundRect,0.250000X-1.100000X0.325000X-1.100000X-0.325000X1.100000X-0.325000X1.100000X0.325000X0*%
%ADD20RoundRect,0.100000X0.400000X-0.400000X0.400000X0.400000X-0.400000X0.400000X-0.400000X-0.400000X0*%
%ADD21RoundRect,0.105000X0.995000X-0.420000X0.995000X0.420000X-0.995000X0.420000X-0.995000X-0.420000X0*%
%ADD22RoundRect,0.135000X0.135000X0.185000X-0.135000X0.185000X-0.135000X-0.185000X0.135000X-0.185000X0*%
%ADD23RoundRect,0.140000X-0.170000X0.140000X-0.170000X-0.140000X0.170000X-0.140000X0.170000X0.140000X0*%
%ADD24R,1.600000X0.700000*%
%ADD25R,1.800000X1.200000*%
%ADD26R,2.200000X1.200000*%
%ADD27R,1.500000X1.600000*%
%ADD28RoundRect,0.135000X0.185000X-0.135000X0.185000X0.135000X-0.185000X0.135000X-0.185000X-0.135000X0*%
%ADD29RoundRect,0.175000X0.725000X0.175000X-0.725000X0.175000X-0.725000X-0.175000X0.725000X-0.175000X0*%
%ADD30RoundRect,0.200000X0.700000X0.200000X-0.700000X0.200000X-0.700000X-0.200000X0.700000X-0.200000X0*%
%ADD31RoundRect,0.225000X-0.250000X0.225000X-0.250000X-0.225000X0.250000X-0.225000X0.250000X0.225000X0*%
%ADD32RoundRect,0.218750X0.218750X0.256250X-0.218750X0.256250X-0.218750X-0.256250X0.218750X-0.256250X0*%
%ADD33RoundRect,0.125000X0.125000X-0.625000X0.125000X0.625000X-0.125000X0.625000X-0.125000X-0.625000X0*%
%ADD34RoundRect,0.125000X0.625000X-0.125000X0.625000X0.125000X-0.625000X0.125000X-0.625000X-0.125000X0*%
%ADD35RoundRect,0.147500X0.172500X-0.147500X0.172500X0.147500X-0.172500X0.147500X-0.172500X-0.147500X0*%
%ADD36RoundRect,0.140000X0.140000X0.170000X-0.140000X0.170000X-0.140000X-0.170000X0.140000X-0.170000X0*%
%ADD37RoundRect,0.135000X-0.185000X0.135000X-0.185000X-0.135000X0.185000X-0.135000X0.185000X0.135000X0*%
%ADD38RoundRect,0.250000X0.325000X1.100000X-0.325000X1.100000X-0.325000X-1.100000X0.325000X-1.100000X0*%
%ADD39RoundRect,0.250000X-0.450000X-0.350000X0.450000X-0.350000X0.450000X0.350000X-0.450000X0.350000X0*%
%ADD40RoundRect,0.235000X-0.235000X0.235000X-0.235000X-0.235000X0.235000X-0.235000X0.235000X0.235000X0*%
%ADD41RoundRect,0.087500X-0.087500X0.425000X-0.087500X-0.425000X0.087500X-0.425000X0.087500X0.425000X0*%
%ADD42RoundRect,0.087500X-0.425000X0.087500X-0.425000X-0.087500X0.425000X-0.087500X0.425000X0.087500X0*%
%ADD43RoundRect,0.100000X-0.400000X0.400000X-0.400000X-0.400000X0.400000X-0.400000X0.400000X0.400000X0*%
%ADD44RoundRect,0.105000X-0.995000X0.420000X-0.995000X-0.420000X0.995000X-0.420000X0.995000X0.420000X0*%
%ADD45RoundRect,0.062500X0.227500X-0.062500X0.227500X0.062500X-0.227500X0.062500X-0.227500X-0.062500X0*%
%ADD46RoundRect,0.062500X0.062500X-0.227500X0.062500X0.227500X-0.062500X0.227500X-0.062500X-0.227500X0*%
%ADD47RoundRect,0.147500X0.147500X0.172500X-0.147500X0.172500X-0.147500X-0.172500X0.147500X-0.172500X0*%
%ADD48RoundRect,0.218750X-0.218750X-0.256250X0.218750X-0.256250X0.218750X0.256250X-0.218750X0.256250X0*%
%ADD49RoundRect,0.200000X-0.800000X0.200000X-0.800000X-0.200000X0.800000X-0.200000X0.800000X0.200000X0*%
%ADD50RoundRect,0.147500X-0.172500X0.147500X-0.172500X-0.147500X0.172500X-0.147500X0.172500X0.147500X0*%
%ADD51RoundRect,0.225000X0.250000X-0.225000X0.250000X0.225000X-0.250000X0.225000X-0.250000X-0.225000X0*%
%ADD52RoundRect,0.200000X0.800000X-0.200000X0.800000X0.200000X-0.800000X0.200000X-0.800000X-0.200000X0*%
%ADD53RoundRect,0.075000X0.700000X0.075000X-0.700000X0.075000X-0.700000X-0.075000X0.700000X-0.075000X0*%
%ADD54RoundRect,0.075000X0.075000X0.700000X-0.075000X0.700000X-0.075000X-0.700000X0.075000X-0.700000X0*%
%ADD55RoundRect,0.200000X0.250000X0.200000X-0.250000X0.200000X-0.250000X-0.200000X0.250000X-0.200000X0*%
%ADD56RoundRect,0.150000X0.512500X0.150000X-0.512500X0.150000X-0.512500X-0.150000X0.512500X-0.150000X0*%
%ADD57RoundRect,0.150000X0.150000X-0.512500X0.150000X0.512500X-0.150000X0.512500X-0.150000X-0.512500X0*%
%ADD58RoundRect,0.250000X0.350000X-0.450000X0.350000X0.450000X-0.350000X0.450000X-0.350000X-0.450000X0*%
%ADD59RoundRect,0.075000X-0.075000X0.700000X-0.075000X-0.700000X0.075000X-0.700000X0.075000X0.700000X0*%
%ADD60RoundRect,0.075000X-0.700000X0.075000X-0.700000X-0.075000X0.700000X-0.075000X0.700000X0.075000X0*%
%ADD61RoundRect,0.218750X0.256250X-0.218750X0.256250X0.218750X-0.256250X0.218750X-0.256250X-0.218750X0*%
%ADD62R,2.700000X3.600000*%
%ADD63RoundRect,0.218750X-0.256250X0.218750X-0.256250X-0.218750X0.256250X-0.218750X0.256250X0.218750X0*%
%ADD64R,1.000000X1.800000*%
%ADD65RoundRect,0.087500X-0.225000X-0.087500X0.225000X-0.087500X0.225000X0.087500X-0.225000X0.087500X0*%
%ADD66RoundRect,0.087500X-0.087500X-0.225000X0.087500X-0.225000X0.087500X0.225000X-0.087500X0.225000X0*%
%ADD67RoundRect,0.225000X0.375000X-0.225000X0.375000X0.225000X-0.375000X0.225000X-0.375000X-0.225000X0*%
%ADD68R,2.200000X0.650000*%
%ADD69R,2.300000X0.650000*%
G04 APERTURE END LIST*
D10*
%TO.C,J1*%
X112045000Y-72250000D03*
X112045000Y-73050000D03*
D11*
X112045000Y-74250000D03*
X112045000Y-75250000D03*
X112045000Y-75750000D03*
X112045000Y-76750000D03*
D10*
X112045000Y-77950000D03*
X112045000Y-78750000D03*
X112045000Y-78750000D03*
X112045000Y-77950000D03*
D11*
X112045000Y-77250000D03*
X112045000Y-76250000D03*
X112045000Y-74750000D03*
X112045000Y-73750000D03*
D10*
X112045000Y-73050000D03*
X112045000Y-72250000D03*
%TD*%
D12*
%TO.C,C50*%
X124067500Y-113800000D03*
X125027500Y-113800000D03*
%TD*%
D13*
%TO.C,L13*%
X178190000Y-120720000D03*
X179160000Y-120720000D03*
%TD*%
D14*
%TO.C,U3*%
X131225000Y-83750000D03*
X131225000Y-84250000D03*
X131225000Y-84750000D03*
X131225000Y-85250000D03*
D15*
X131750000Y-85775000D03*
X132250000Y-85775000D03*
X132750000Y-85775000D03*
X133250000Y-85775000D03*
D14*
X133775000Y-85250000D03*
X133775000Y-84750000D03*
X133775000Y-84250000D03*
X133775000Y-83750000D03*
D15*
X133250000Y-83225000D03*
X132750000Y-83225000D03*
X132250000Y-83225000D03*
X131750000Y-83225000D03*
%TD*%
D16*
%TO.C,C55*%
X120245000Y-127895000D03*
X118695000Y-127895000D03*
%TD*%
D17*
%TO.C,C36*%
X143900000Y-107930000D03*
X143900000Y-106970000D03*
%TD*%
%TO.C,C54*%
X132987500Y-120475000D03*
X132987500Y-119515000D03*
%TD*%
D18*
%TO.C,R27*%
X181872500Y-111500000D03*
X182892500Y-111500000D03*
%TD*%
D19*
%TO.C,C31*%
X176000000Y-74300000D03*
X176000000Y-77250000D03*
%TD*%
D12*
%TO.C,C57*%
X131102500Y-121595000D03*
X132062500Y-121595000D03*
%TD*%
D20*
%TO.C,J30*%
X182475000Y-120720000D03*
D21*
X183975000Y-119245000D03*
D20*
X185475000Y-120720000D03*
D21*
X183975000Y-122195000D03*
%TD*%
D22*
%TO.C,R17*%
X120310000Y-106950000D03*
X119290000Y-106950000D03*
%TD*%
D23*
%TO.C,C85*%
X180075000Y-120740000D03*
X180075000Y-121700000D03*
%TD*%
D24*
%TO.C,J25*%
X117550000Y-114650000D03*
X117550000Y-113550000D03*
X117550000Y-112450000D03*
X117550000Y-111350000D03*
X117550000Y-110250000D03*
X117550000Y-109150000D03*
X117550000Y-108050000D03*
X117550000Y-106950000D03*
X117550000Y-105850000D03*
D25*
X116250000Y-104650000D03*
D26*
X106950000Y-104650000D03*
D27*
X116500000Y-119250000D03*
D26*
X106950000Y-120150000D03*
%TD*%
D18*
%TO.C,R20*%
X139880000Y-112400000D03*
X140900000Y-112400000D03*
%TD*%
D12*
%TO.C,C35*%
X140170000Y-109150000D03*
X141130000Y-109150000D03*
%TD*%
D28*
%TO.C,R13*%
X116390000Y-55220000D03*
X116390000Y-54200000D03*
%TD*%
D17*
%TO.C,C20*%
X126000000Y-60780000D03*
X126000000Y-59820000D03*
%TD*%
D12*
%TO.C,C61*%
X129187500Y-125000000D03*
X130147500Y-125000000D03*
%TD*%
D13*
%TO.C,L5*%
X136717500Y-120495000D03*
X137687500Y-120495000D03*
%TD*%
D29*
%TO.C,U10*%
X177175000Y-102400000D03*
D30*
X177175000Y-101300000D03*
X177175000Y-100200000D03*
X177175000Y-99100000D03*
X177175000Y-98000000D03*
X177175000Y-96900000D03*
X177175000Y-95800000D03*
X177175000Y-94700000D03*
D29*
X177175000Y-93600000D03*
X167675000Y-93600000D03*
D30*
X167675000Y-94700000D03*
X167675000Y-95800000D03*
X167675000Y-96900000D03*
X167675000Y-98000000D03*
X167675000Y-99100000D03*
X167675000Y-100200000D03*
X167675000Y-101300000D03*
D29*
X167675000Y-102400000D03*
%TD*%
D12*
%TO.C,C40*%
X138340000Y-102300000D03*
X139300000Y-102300000D03*
%TD*%
%TO.C,C56*%
X133907500Y-119495000D03*
X134867500Y-119495000D03*
%TD*%
D23*
%TO.C,C53*%
X121427500Y-127560000D03*
X121427500Y-128520000D03*
%TD*%
%TO.C,C81*%
X174475000Y-120740000D03*
X174475000Y-121700000D03*
%TD*%
D28*
%TO.C,R24*%
X175625000Y-110160000D03*
X175625000Y-109140000D03*
%TD*%
D31*
%TO.C,C30*%
X134400000Y-74025000D03*
X134400000Y-75575000D03*
%TD*%
D19*
%TO.C,C33*%
X174000000Y-82025000D03*
X174000000Y-84975000D03*
%TD*%
D17*
%TO.C,C4*%
X117335000Y-59480000D03*
X117335000Y-58520000D03*
%TD*%
D32*
%TO.C,D6*%
X143687500Y-112410000D03*
X142112500Y-112410000D03*
%TD*%
D33*
%TO.C,U9*%
X150200000Y-114175000D03*
X151000000Y-114175000D03*
X151800000Y-114175000D03*
X152600000Y-114175000D03*
X153400000Y-114175000D03*
X154200000Y-114175000D03*
X155000000Y-114175000D03*
X155800000Y-114175000D03*
D34*
X157175000Y-112800000D03*
X157175000Y-112000000D03*
X157175000Y-111200000D03*
X157175000Y-110400000D03*
X157175000Y-109600000D03*
X157175000Y-108800000D03*
X157175000Y-108000000D03*
X157175000Y-107200000D03*
D33*
X155800000Y-105825000D03*
X155000000Y-105825000D03*
X154200000Y-105825000D03*
X153400000Y-105825000D03*
X152600000Y-105825000D03*
X151800000Y-105825000D03*
X151000000Y-105825000D03*
X150200000Y-105825000D03*
D34*
X148825000Y-107200000D03*
X148825000Y-108000000D03*
X148825000Y-108800000D03*
X148825000Y-109600000D03*
X148825000Y-110400000D03*
X148825000Y-111200000D03*
X148825000Y-112000000D03*
X148825000Y-112800000D03*
%TD*%
D35*
%TO.C,L9*%
X169760000Y-121620000D03*
X169760000Y-120650000D03*
%TD*%
D28*
%TO.C,TH2*%
X166260000Y-112130000D03*
X166260000Y-111110000D03*
%TD*%
%TO.C,R21*%
X114300000Y-100720000D03*
X114300000Y-99700000D03*
%TD*%
D36*
%TO.C,C46*%
X125380000Y-109300000D03*
X124420000Y-109300000D03*
%TD*%
D18*
%TO.C,R1*%
X113790000Y-74100000D03*
X114810000Y-74100000D03*
%TD*%
%TO.C,R18*%
X139890000Y-115400000D03*
X140910000Y-115400000D03*
%TD*%
D19*
%TO.C,C16*%
X158000000Y-74275000D03*
X158000000Y-77225000D03*
%TD*%
D18*
%TO.C,R22*%
X124037500Y-114800000D03*
X125057500Y-114800000D03*
%TD*%
%TO.C,R26*%
X181872500Y-113100000D03*
X182892500Y-113100000D03*
%TD*%
%TO.C,R19*%
X139890000Y-113900000D03*
X140910000Y-113900000D03*
%TD*%
D20*
%TO.C,J26*%
X140987500Y-120495000D03*
D21*
X142487500Y-119020000D03*
D20*
X143987500Y-120495000D03*
D21*
X142487500Y-121970000D03*
%TD*%
D17*
%TO.C,C6*%
X116335000Y-60580000D03*
X116335000Y-59620000D03*
%TD*%
D37*
%TO.C,R7*%
X163437500Y-67890000D03*
X163437500Y-68910000D03*
%TD*%
D36*
%TO.C,C38*%
X126500000Y-97800000D03*
X125540000Y-97800000D03*
%TD*%
D12*
%TO.C,C29*%
X134220000Y-63300000D03*
X135180000Y-63300000D03*
%TD*%
D38*
%TO.C,C2*%
X168475000Y-60500000D03*
X165525000Y-60500000D03*
%TD*%
D39*
%TO.C,Y4*%
X141450000Y-105150000D03*
X143650000Y-105150000D03*
X143650000Y-103450000D03*
X141450000Y-103450000D03*
%TD*%
D22*
%TO.C,R16*%
X120310000Y-108050000D03*
X119290000Y-108050000D03*
%TD*%
%TO.C,R2*%
X114810000Y-77300000D03*
X113790000Y-77300000D03*
%TD*%
%TO.C,R5*%
X118810000Y-65200000D03*
X117790000Y-65200000D03*
%TD*%
D23*
%TO.C,C11*%
X119800000Y-87020000D03*
X119800000Y-87980000D03*
%TD*%
D40*
%TO.C,U8*%
X126347500Y-121580000D03*
X125187500Y-121580000D03*
X124027500Y-121580000D03*
X122867500Y-121580000D03*
X126347500Y-122740000D03*
X125187500Y-122740000D03*
X124027500Y-122740000D03*
X122867500Y-122740000D03*
X126347500Y-123900000D03*
X125187500Y-123900000D03*
X124027500Y-123900000D03*
X122867500Y-123900000D03*
X126347500Y-125060000D03*
X125187500Y-125060000D03*
X124027500Y-125060000D03*
X122867500Y-125060000D03*
D41*
X126882500Y-119982500D03*
X126232500Y-119982500D03*
X125582500Y-119982500D03*
X124932500Y-119982500D03*
X124282500Y-119982500D03*
X123632500Y-119982500D03*
X122982500Y-119982500D03*
X122332500Y-119982500D03*
D42*
X121270000Y-121045000D03*
X121270000Y-121695000D03*
X121270000Y-122345000D03*
X121270000Y-122995000D03*
X121270000Y-123645000D03*
X121270000Y-124295000D03*
X121270000Y-124945000D03*
X121270000Y-125595000D03*
D41*
X122332500Y-126657500D03*
X122982500Y-126657500D03*
X123632500Y-126657500D03*
X124282500Y-126657500D03*
X124932500Y-126657500D03*
X125582500Y-126657500D03*
X126232500Y-126657500D03*
X126882500Y-126657500D03*
D42*
X127945000Y-125595000D03*
X127945000Y-124945000D03*
X127945000Y-124295000D03*
X127945000Y-123645000D03*
X127945000Y-122995000D03*
X127945000Y-122345000D03*
X127945000Y-121695000D03*
X127945000Y-121045000D03*
%TD*%
D36*
%TO.C,C47*%
X126480000Y-98800000D03*
X125520000Y-98800000D03*
%TD*%
%TO.C,C73*%
X160360000Y-120480000D03*
X159400000Y-120480000D03*
%TD*%
D28*
%TO.C,TH1*%
X125947500Y-116010000D03*
X125947500Y-114990000D03*
%TD*%
D43*
%TO.C,J29*%
X165525000Y-94700000D03*
D44*
X164025000Y-96175000D03*
D43*
X162525000Y-94700000D03*
D44*
X164025000Y-93225000D03*
%TD*%
D23*
%TO.C,C8*%
X116500000Y-70320000D03*
X116500000Y-71280000D03*
%TD*%
D12*
%TO.C,C79*%
X172595000Y-120720000D03*
X173555000Y-120720000D03*
%TD*%
%TO.C,C41*%
X138340000Y-103300000D03*
X139300000Y-103300000D03*
%TD*%
D38*
%TO.C,C3*%
X168475000Y-63800000D03*
X165525000Y-63800000D03*
%TD*%
D23*
%TO.C,C43*%
X122700000Y-99740000D03*
X122700000Y-100700000D03*
%TD*%
D13*
%TO.C,L3*%
X129202500Y-120495000D03*
X130172500Y-120495000D03*
%TD*%
D12*
%TO.C,C23*%
X116420000Y-79100000D03*
X117380000Y-79100000D03*
%TD*%
D18*
%TO.C,R25*%
X181872500Y-114700000D03*
X182892500Y-114700000D03*
%TD*%
D45*
%TO.C,U4*%
X117435000Y-60950000D03*
X117435000Y-61400000D03*
X117435000Y-61850000D03*
D46*
X118070000Y-62265000D03*
X118520000Y-62265000D03*
D45*
X119165000Y-61850000D03*
X119165000Y-61400000D03*
X119165000Y-60950000D03*
D46*
X118520000Y-60535000D03*
X118070000Y-60535000D03*
%TD*%
D23*
%TO.C,C12*%
X119300000Y-69420000D03*
X119300000Y-70380000D03*
%TD*%
D47*
%TO.C,L12*%
X176360000Y-120720000D03*
X175390000Y-120720000D03*
%TD*%
D48*
%TO.C,D8*%
X175637500Y-111550000D03*
X177212500Y-111550000D03*
%TD*%
D49*
%TO.C,RESET1*%
X122000000Y-84900000D03*
X122000000Y-89100000D03*
%TD*%
D40*
%TO.C,U11*%
X166740000Y-118260000D03*
X165580000Y-118260000D03*
X164420000Y-118260000D03*
X163260000Y-118260000D03*
X166740000Y-119420000D03*
X165580000Y-119420000D03*
X164420000Y-119420000D03*
X163260000Y-119420000D03*
X166740000Y-120580000D03*
X165580000Y-120580000D03*
X164420000Y-120580000D03*
X163260000Y-120580000D03*
X166740000Y-121740000D03*
X165580000Y-121740000D03*
X164420000Y-121740000D03*
X163260000Y-121740000D03*
D41*
X167275000Y-116662500D03*
X166625000Y-116662500D03*
X165975000Y-116662500D03*
X165325000Y-116662500D03*
X164675000Y-116662500D03*
X164025000Y-116662500D03*
X163375000Y-116662500D03*
X162725000Y-116662500D03*
D42*
X161662500Y-117725000D03*
X161662500Y-118375000D03*
X161662500Y-119025000D03*
X161662500Y-119675000D03*
X161662500Y-120325000D03*
X161662500Y-120975000D03*
X161662500Y-121625000D03*
X161662500Y-122275000D03*
D41*
X162725000Y-123337500D03*
X163375000Y-123337500D03*
X164025000Y-123337500D03*
X164675000Y-123337500D03*
X165325000Y-123337500D03*
X165975000Y-123337500D03*
X166625000Y-123337500D03*
X167275000Y-123337500D03*
D42*
X168337500Y-122275000D03*
X168337500Y-121625000D03*
X168337500Y-120975000D03*
X168337500Y-120325000D03*
X168337500Y-119675000D03*
X168337500Y-119025000D03*
X168337500Y-118375000D03*
X168337500Y-117725000D03*
%TD*%
D50*
%TO.C,L2*%
X129845000Y-118490000D03*
X129845000Y-119460000D03*
%TD*%
D17*
%TO.C,C59*%
X135787500Y-120475000D03*
X135787500Y-119515000D03*
%TD*%
D51*
%TO.C,C1*%
X129829000Y-83790000D03*
X129829000Y-82240000D03*
%TD*%
D12*
%TO.C,C39*%
X135720000Y-111400000D03*
X136680000Y-111400000D03*
%TD*%
D18*
%TO.C,R8*%
X163527500Y-66900000D03*
X164547500Y-66900000D03*
%TD*%
D12*
%TO.C,C34*%
X142870000Y-102075000D03*
X143830000Y-102075000D03*
%TD*%
%TO.C,C42*%
X138220000Y-109300000D03*
X139180000Y-109300000D03*
%TD*%
D17*
%TO.C,C37*%
X139950000Y-105655000D03*
X139950000Y-104695000D03*
%TD*%
D32*
%TO.C,D11*%
X185670000Y-111500000D03*
X184095000Y-111500000D03*
%TD*%
D52*
%TO.C,BOOT1*%
X125500000Y-89100000D03*
X125500000Y-84900000D03*
%TD*%
D13*
%TO.C,L10*%
X170690000Y-120720000D03*
X171660000Y-120720000D03*
%TD*%
D12*
%TO.C,C69*%
X164260000Y-109920000D03*
X165220000Y-109920000D03*
%TD*%
D53*
%TO.C,U7*%
X136775000Y-108350000D03*
X136775000Y-107850000D03*
X136775000Y-107350000D03*
X136775000Y-106850000D03*
X136775000Y-106350000D03*
X136775000Y-105850000D03*
X136775000Y-105350000D03*
X136775000Y-104850000D03*
X136775000Y-104350000D03*
X136775000Y-103850000D03*
X136775000Y-103350000D03*
X136775000Y-102850000D03*
X136775000Y-102350000D03*
X136775000Y-101850000D03*
X136775000Y-101350000D03*
X136775000Y-100850000D03*
D54*
X134850000Y-98925000D03*
X134350000Y-98925000D03*
X133850000Y-98925000D03*
X133350000Y-98925000D03*
X132850000Y-98925000D03*
X132350000Y-98925000D03*
X131850000Y-98925000D03*
X131350000Y-98925000D03*
X130850000Y-98925000D03*
X130350000Y-98925000D03*
X129850000Y-98925000D03*
X129350000Y-98925000D03*
X128850000Y-98925000D03*
X128350000Y-98925000D03*
X127850000Y-98925000D03*
X127350000Y-98925000D03*
D53*
X125425000Y-100850000D03*
X125425000Y-101350000D03*
X125425000Y-101850000D03*
X125425000Y-102350000D03*
X125425000Y-102850000D03*
X125425000Y-103350000D03*
X125425000Y-103850000D03*
X125425000Y-104350000D03*
X125425000Y-104850000D03*
X125425000Y-105350000D03*
X125425000Y-105850000D03*
X125425000Y-106350000D03*
X125425000Y-106850000D03*
X125425000Y-107350000D03*
X125425000Y-107850000D03*
X125425000Y-108350000D03*
D54*
X127350000Y-110275000D03*
X127850000Y-110275000D03*
X128350000Y-110275000D03*
X128850000Y-110275000D03*
X129350000Y-110275000D03*
X129850000Y-110275000D03*
X130350000Y-110275000D03*
X130850000Y-110275000D03*
X131350000Y-110275000D03*
X131850000Y-110275000D03*
X132350000Y-110275000D03*
X132850000Y-110275000D03*
X133350000Y-110275000D03*
X133850000Y-110275000D03*
X134350000Y-110275000D03*
X134850000Y-110275000D03*
%TD*%
D23*
%TO.C,C28*%
X121100000Y-70620000D03*
X121100000Y-71580000D03*
%TD*%
D22*
%TO.C,R9*%
X164547500Y-65900000D03*
X163527500Y-65900000D03*
%TD*%
D55*
%TO.C,Y7*%
X164960000Y-112220000D03*
X163560000Y-112220000D03*
X163560000Y-113320000D03*
X164960000Y-113320000D03*
%TD*%
D35*
%TO.C,D12*%
X181075000Y-121705000D03*
X181075000Y-120735000D03*
%TD*%
D23*
%TO.C,C27*%
X133100000Y-73820000D03*
X133100000Y-74780000D03*
%TD*%
D22*
%TO.C,R10*%
X120310000Y-114650000D03*
X119290000Y-114650000D03*
%TD*%
D56*
%TO.C,U6*%
X168175000Y-68250000D03*
X168175000Y-67300000D03*
X168175000Y-66350000D03*
X165900000Y-66350000D03*
X165900000Y-67300000D03*
X165900000Y-68250000D03*
%TD*%
D57*
%TO.C,U5*%
X116450000Y-82837500D03*
X117400000Y-82837500D03*
X118350000Y-82837500D03*
X118350000Y-80562500D03*
X116450000Y-80562500D03*
%TD*%
D36*
%TO.C,C80*%
X170740000Y-118720000D03*
X169780000Y-118720000D03*
%TD*%
%TO.C,C10*%
X133880000Y-57600000D03*
X132920000Y-57600000D03*
%TD*%
D17*
%TO.C,C58*%
X126827500Y-118780000D03*
X126827500Y-117820000D03*
%TD*%
D58*
%TO.C,Y2*%
X129450000Y-58200000D03*
X129450000Y-56000000D03*
X127750000Y-56000000D03*
X127750000Y-58200000D03*
%TD*%
D28*
%TO.C,R6*%
X164437500Y-68910000D03*
X164437500Y-67890000D03*
%TD*%
D36*
%TO.C,C22*%
X115180000Y-83200000D03*
X114220000Y-83200000D03*
%TD*%
D19*
%TO.C,C17*%
X176000000Y-62775000D03*
X176000000Y-65725000D03*
%TD*%
D28*
%TO.C,R15*%
X114690000Y-55220000D03*
X114690000Y-54200000D03*
%TD*%
D12*
%TO.C,C7*%
X133449000Y-82190000D03*
X134409000Y-82190000D03*
%TD*%
D18*
%TO.C,R23*%
X164250000Y-110920000D03*
X165270000Y-110920000D03*
%TD*%
D36*
%TO.C,C76*%
X160400000Y-119500000D03*
X159440000Y-119500000D03*
%TD*%
D12*
%TO.C,C68*%
X150600000Y-118300000D03*
X151560000Y-118300000D03*
%TD*%
D17*
%TO.C,C48*%
X133800000Y-97380000D03*
X133800000Y-96420000D03*
%TD*%
D32*
%TO.C,D5*%
X143687500Y-113900000D03*
X142112500Y-113900000D03*
%TD*%
D59*
%TO.C,U1*%
X132150000Y-62325000D03*
X131650000Y-62325000D03*
X131150000Y-62325000D03*
X130650000Y-62325000D03*
X130150000Y-62325000D03*
X129650000Y-62325000D03*
X129150000Y-62325000D03*
X128650000Y-62325000D03*
X128150000Y-62325000D03*
X127650000Y-62325000D03*
X127150000Y-62325000D03*
X126650000Y-62325000D03*
X126150000Y-62325000D03*
X125650000Y-62325000D03*
X125150000Y-62325000D03*
X124650000Y-62325000D03*
D60*
X122725000Y-64250000D03*
X122725000Y-64750000D03*
X122725000Y-65250000D03*
X122725000Y-65750000D03*
X122725000Y-66250000D03*
X122725000Y-66750000D03*
X122725000Y-67250000D03*
X122725000Y-67750000D03*
X122725000Y-68250000D03*
X122725000Y-68750000D03*
X122725000Y-69250000D03*
X122725000Y-69750000D03*
X122725000Y-70250000D03*
X122725000Y-70750000D03*
X122725000Y-71250000D03*
X122725000Y-71750000D03*
D59*
X124650000Y-73675000D03*
X125150000Y-73675000D03*
X125650000Y-73675000D03*
X126150000Y-73675000D03*
X126650000Y-73675000D03*
X127150000Y-73675000D03*
X127650000Y-73675000D03*
X128150000Y-73675000D03*
X128650000Y-73675000D03*
X129150000Y-73675000D03*
X129650000Y-73675000D03*
X130150000Y-73675000D03*
X130650000Y-73675000D03*
X131150000Y-73675000D03*
X131650000Y-73675000D03*
X132150000Y-73675000D03*
D60*
X134075000Y-71750000D03*
X134075000Y-71250000D03*
X134075000Y-70750000D03*
X134075000Y-70250000D03*
X134075000Y-69750000D03*
X134075000Y-69250000D03*
X134075000Y-68750000D03*
X134075000Y-68250000D03*
X134075000Y-67750000D03*
X134075000Y-67250000D03*
X134075000Y-66750000D03*
X134075000Y-66250000D03*
X134075000Y-65750000D03*
X134075000Y-65250000D03*
X134075000Y-64750000D03*
X134075000Y-64250000D03*
%TD*%
D17*
%TO.C,C64*%
X127827500Y-119085000D03*
X127827500Y-118125000D03*
%TD*%
%TO.C,C51*%
X128827500Y-119475000D03*
X128827500Y-118515000D03*
%TD*%
D23*
%TO.C,C84*%
X177275000Y-120740000D03*
X177275000Y-121700000D03*
%TD*%
D61*
%TO.C,L6*%
X119200000Y-126427500D03*
X119200000Y-124852500D03*
%TD*%
D12*
%TO.C,C83*%
X171680000Y-119720000D03*
X172640000Y-119720000D03*
%TD*%
%TO.C,C45*%
X135720000Y-110400000D03*
X136680000Y-110400000D03*
%TD*%
%TO.C,C82*%
X175395000Y-121720000D03*
X176355000Y-121720000D03*
%TD*%
D62*
%TO.C,L1*%
X162850000Y-75500000D03*
X171150000Y-75500000D03*
%TD*%
D13*
%TO.C,L11*%
X169775000Y-119720000D03*
X170745000Y-119720000D03*
%TD*%
D63*
%TO.C,D2*%
X116400000Y-51412500D03*
X116400000Y-52987500D03*
%TD*%
D22*
%TO.C,R12*%
X120310000Y-112450000D03*
X119290000Y-112450000D03*
%TD*%
D64*
%TO.C,Y1*%
X133750000Y-59300000D03*
X131250000Y-59300000D03*
%TD*%
D22*
%TO.C,R3*%
X126010000Y-83700000D03*
X124990000Y-83700000D03*
%TD*%
D55*
%TO.C,Y5*%
X124667500Y-116110000D03*
X123267500Y-116110000D03*
X123267500Y-117210000D03*
X124667500Y-117210000D03*
%TD*%
D12*
%TO.C,C52*%
X131107500Y-120495000D03*
X132067500Y-120495000D03*
%TD*%
D22*
%TO.C,R4*%
X118810000Y-66200000D03*
X117790000Y-66200000D03*
%TD*%
D31*
%TO.C,C66*%
X153900000Y-116125000D03*
X153900000Y-117675000D03*
%TD*%
D23*
%TO.C,C65*%
X152700000Y-115720000D03*
X152700000Y-116680000D03*
%TD*%
D17*
%TO.C,C62*%
X138602500Y-120475000D03*
X138602500Y-119515000D03*
%TD*%
D65*
%TO.C,U2*%
X115815000Y-67550000D03*
X115815000Y-68050000D03*
X115815000Y-68550000D03*
X115815000Y-69050000D03*
D66*
X116477500Y-69212500D03*
X116977500Y-69212500D03*
X117477500Y-69212500D03*
D65*
X118140000Y-69050000D03*
X118140000Y-68550000D03*
X118140000Y-68050000D03*
X118140000Y-67550000D03*
D66*
X117477500Y-67387500D03*
X116977500Y-67387500D03*
X116477500Y-67387500D03*
%TD*%
D49*
%TO.C,BOOT2*%
X116500000Y-98100000D03*
X116500000Y-102300000D03*
%TD*%
D64*
%TO.C,Y6*%
X151350000Y-116600000D03*
X148850000Y-116600000D03*
%TD*%
%TO.C,Y3*%
X140150000Y-107475000D03*
X142650000Y-107475000D03*
%TD*%
D50*
%TO.C,D7*%
X139587500Y-119510000D03*
X139587500Y-120480000D03*
%TD*%
D12*
%TO.C,C77*%
X168180000Y-115720000D03*
X169140000Y-115720000D03*
%TD*%
D17*
%TO.C,C26*%
X135600000Y-65180000D03*
X135600000Y-64220000D03*
%TD*%
D23*
%TO.C,C75*%
X169700000Y-122600000D03*
X169700000Y-123560000D03*
%TD*%
D61*
%TO.C,L8*%
X159700000Y-123287500D03*
X159700000Y-121712500D03*
%TD*%
D23*
%TO.C,C70*%
X161780000Y-124200000D03*
X161780000Y-125160000D03*
%TD*%
D12*
%TO.C,C72*%
X167320000Y-114700000D03*
X168280000Y-114700000D03*
%TD*%
%TO.C,C18*%
X133020000Y-62200000D03*
X133980000Y-62200000D03*
%TD*%
%TO.C,C32*%
X166537500Y-69500000D03*
X167497500Y-69500000D03*
%TD*%
%TO.C,C13*%
X131040000Y-57600000D03*
X132000000Y-57600000D03*
%TD*%
D36*
%TO.C,C24*%
X121180000Y-65100000D03*
X120220000Y-65100000D03*
%TD*%
D16*
%TO.C,C49*%
X125175000Y-110600000D03*
X123625000Y-110600000D03*
%TD*%
D17*
%TO.C,C14*%
X126300000Y-57180000D03*
X126300000Y-56220000D03*
%TD*%
D13*
%TO.C,L7*%
X129217500Y-121595000D03*
X130187500Y-121595000D03*
%TD*%
D22*
%TO.C,R14*%
X120310000Y-110250000D03*
X119290000Y-110250000D03*
%TD*%
%TO.C,R11*%
X120310000Y-113550000D03*
X119290000Y-113550000D03*
%TD*%
D12*
%TO.C,C78*%
X170680000Y-121720000D03*
X171640000Y-121720000D03*
%TD*%
D36*
%TO.C,C25*%
X122580000Y-72700000D03*
X121620000Y-72700000D03*
%TD*%
D12*
%TO.C,C19*%
X133020000Y-61200000D03*
X133980000Y-61200000D03*
%TD*%
D32*
%TO.C,D4*%
X143687500Y-115400000D03*
X142112500Y-115400000D03*
%TD*%
D19*
%TO.C,C15*%
X158000000Y-62775000D03*
X158000000Y-65725000D03*
%TD*%
D32*
%TO.C,D9*%
X185682500Y-114705000D03*
X184107500Y-114705000D03*
%TD*%
D16*
%TO.C,C74*%
X175400000Y-107950000D03*
X173850000Y-107950000D03*
%TD*%
D12*
%TO.C,C44*%
X138220000Y-110300000D03*
X139180000Y-110300000D03*
%TD*%
D63*
%TO.C,D1*%
X114690000Y-51412500D03*
X114690000Y-52987500D03*
%TD*%
D36*
%TO.C,C9*%
X129980000Y-59700000D03*
X129020000Y-59700000D03*
%TD*%
D67*
%TO.C,D3*%
X114500000Y-81850000D03*
X114500000Y-78550000D03*
%TD*%
D49*
%TO.C,RESET2*%
X120500000Y-98100000D03*
X120500000Y-102300000D03*
%TD*%
D36*
%TO.C,C60*%
X119907500Y-123640000D03*
X118947500Y-123640000D03*
%TD*%
D68*
%TO.C,BT1*%
X177475000Y-107800000D03*
D69*
X177525000Y-106300000D03*
%TD*%
D31*
%TO.C,C71*%
X160480000Y-124705000D03*
X160480000Y-126255000D03*
%TD*%
%TO.C,C5*%
X135129000Y-85015000D03*
X135129000Y-86565000D03*
%TD*%
D36*
%TO.C,C63*%
X119907500Y-122640000D03*
X118947500Y-122640000D03*
%TD*%
D12*
%TO.C,C67*%
X148120000Y-114900000D03*
X149080000Y-114900000D03*
%TD*%
D32*
%TO.C,D10*%
X185682500Y-113100000D03*
X184107500Y-113100000D03*
%TD*%
D47*
%TO.C,L4*%
X134872500Y-120495000D03*
X133902500Y-120495000D03*
%TD*%
D17*
%TO.C,C21*%
X127000000Y-60780000D03*
X127000000Y-59820000D03*
%TD*%
M02*
