ISO-10303-21;
HEADER;
FILE_DESCRIPTION(('FreeCAD Model'),'2;1');
FILE_NAME('Open CASCADE Shape Model','2026-06-10T10:37:24',(''),(''),
  'Open CASCADE STEP processor 7.9','FreeCAD','Unknown');
FILE_SCHEMA(('AUTOMOTIVE_DESIGN { 1 0 10303 214 1 1 1 1 }'));
ENDSEC;
DATA;
#1 = APPLICATION_PROTOCOL_DEFINITION('international standard',
  'automotive_design',2000,#2);
#2 = APPLICATION_CONTEXT(
  'core data for automotive mechanical design processes');
#3 = SHAPE_DEFINITION_REPRESENTATION(#4,#10);
#4 = PRODUCT_DEFINITION_SHAPE('','',#5);
#5 = PRODUCT_DEFINITION('design','',#6,#9);
#6 = PRODUCT_DEFINITION_FORMATION('','',#7);
#7 = PRODUCT('Body','Body','',(#8));
#8 = PRODUCT_CONTEXT('',#2,'mechanical');
#9 = PRODUCT_DEFINITION_CONTEXT('part definition',#2,'design');
#10 = ADVANCED_BREP_SHAPE_REPRESENTATION('',(#11,#15),#907);
#11 = AXIS2_PLACEMENT_3D('',#12,#13,#14);
#12 = CARTESIAN_POINT('',(0.,0.,0.));
#13 = DIRECTION('',(0.,0.,1.));
#14 = DIRECTION('',(1.,0.,-0.));
#15 = MANIFOLD_SOLID_BREP('',#16);
#16 = CLOSED_SHELL('',(#17,#90,#155,#198,#215,#272,#336,#353,#385,#410,
    #426,#458,#482,#515,#532,#544,#614,#624,#635,#682,#707,#732,#742,
    #752,#806,#831,#871,#888));
#17 = ADVANCED_FACE('',(#18),#85,.F.);
#18 = FACE_BOUND('',#19,.F.);
#19 = EDGE_LOOP('',(#20,#30,#38,#46,#55,#63,#71,#79));
#20 = ORIENTED_EDGE('',*,*,#21,.F.);
#21 = EDGE_CURVE('',#22,#24,#26,.T.);
#22 = VERTEX_POINT('',#23);
#23 = CARTESIAN_POINT('',(-7.424621202462,-10.25304832721,-2.5));
#24 = VERTEX_POINT('',#25);
#25 = CARTESIAN_POINT('',(2.137528706355,-0.690898418393,-31.5));
#26 = LINE('',#27,#28);
#27 = CARTESIAN_POINT('',(-7.424621202462,-10.25304832721,-2.5));
#28 = VECTOR('',#29,1.);
#29 = DIRECTION('',(0.29883623873,0.29883623873,-0.906307787037));
#30 = ORIENTED_EDGE('',*,*,#31,.F.);
#31 = EDGE_CURVE('',#32,#22,#34,.T.);
#32 = VERTEX_POINT('',#33);
#33 = CARTESIAN_POINT('',(-7.317913898902,-10.14634102365,-2.5));
#34 = LINE('',#35,#36);
#35 = CARTESIAN_POINT('',(10.253048327209,7.424621202464,-2.5));
#36 = VECTOR('',#37,1.);
#37 = DIRECTION('',(-0.707106781186,-0.707106781187,0.));
#38 = ORIENTED_EDGE('',*,*,#39,.F.);
#39 = EDGE_CURVE('',#40,#32,#42,.T.);
#40 = VERTEX_POINT('',#41);
#41 = CARTESIAN_POINT('',(-1.826156786826,-4.654583911574,
    -2.500000000001));
#42 = LINE('',#43,#44);
#43 = CARTESIAN_POINT('',(10.253048327209,7.424621202464,-2.5));
#44 = VECTOR('',#45,1.);
#45 = DIRECTION('',(-0.707106781186,-0.707106781187,0.));
#46 = ORIENTED_EDGE('',*,*,#47,.T.);
#47 = EDGE_CURVE('',#40,#48,#50,.T.);
#48 = VERTEX_POINT('',#49);
#49 = CARTESIAN_POINT('',(4.654583911574,1.826156786828,-2.5));
#50 = CIRCLE('',#51,4.582575694947);
#51 = AXIS2_PLACEMENT_3D('',#52,#53,#54);
#52 = CARTESIAN_POINT('',(1.414213562374,-1.414213562374,-2.5));
#53 = DIRECTION('',(0.707106781187,-0.707106781186,-1.962615573355E-16)
  );
#54 = DIRECTION('',(0.707106781186,0.707106781187,5.551115123126E-17));
#55 = ORIENTED_EDGE('',*,*,#56,.F.);
#56 = EDGE_CURVE('',#57,#48,#59,.T.);
#57 = VERTEX_POINT('',#58);
#58 = CARTESIAN_POINT('',(10.14634102365,7.317913898905,-2.5));
#59 = LINE('',#60,#61);
#60 = CARTESIAN_POINT('',(10.253048327209,7.424621202464,-2.5));
#61 = VECTOR('',#62,1.);
#62 = DIRECTION('',(-0.707106781186,-0.707106781187,0.));
#63 = ORIENTED_EDGE('',*,*,#64,.F.);
#64 = EDGE_CURVE('',#65,#57,#67,.T.);
#65 = VERTEX_POINT('',#66);
#66 = CARTESIAN_POINT('',(10.253048327209,7.424621202464,-2.5));
#67 = LINE('',#68,#69);
#68 = CARTESIAN_POINT('',(10.253048327209,7.424621202464,-2.5));
#69 = VECTOR('',#70,1.);
#70 = DIRECTION('',(-0.707106781186,-0.707106781187,0.));
#71 = ORIENTED_EDGE('',*,*,#72,.F.);
#72 = EDGE_CURVE('',#73,#65,#75,.T.);
#73 = VERTEX_POINT('',#74);
#74 = CARTESIAN_POINT('',(6.637270218021,3.808843093275,-31.5));
#75 = LINE('',#76,#77);
#76 = CARTESIAN_POINT('',(6.512588214256,3.68416108951,-32.5));
#77 = VECTOR('',#78,1.);
#78 = DIRECTION('',(0.122787803969,0.122787803969,0.984807753012));
#79 = ORIENTED_EDGE('',*,*,#80,.T.);
#80 = EDGE_CURVE('',#73,#24,#81,.T.);
#81 = LINE('',#82,#83);
#82 = CARTESIAN_POINT('',(6.512588214256,3.68416108951,-31.5));
#83 = VECTOR('',#84,1.);
#84 = DIRECTION('',(-0.707106781186,-0.707106781187,0.));
#85 = PLANE('',#86);
#86 = AXIS2_PLACEMENT_3D('',#87,#88,#89);
#87 = CARTESIAN_POINT('',(10.253048327209,7.424621202464,-2.5));
#88 = DIRECTION('',(-0.707106781187,0.707106781186,0.));
#89 = DIRECTION('',(-0.707106781186,-0.707106781187,0.));
#90 = ADVANCED_FACE('',(#91),#150,.T.);
#91 = FACE_BOUND('',#92,.T.);
#92 = EDGE_LOOP('',(#93,#94,#102,#110,#118,#126,#135,#143));
#93 = ORIENTED_EDGE('',*,*,#21,.F.);
#94 = ORIENTED_EDGE('',*,*,#95,.T.);
#95 = EDGE_CURVE('',#22,#96,#98,.T.);
#96 = VERTEX_POINT('',#97);
#97 = CARTESIAN_POINT('',(-8.485210670759,-9.192458858915,-2.5));
#98 = LINE('',#99,#100);
#99 = CARTESIAN_POINT('',(-8.838834764836,-8.838834764838,-2.5));
#100 = VECTOR('',#101,1.);
#101 = DIRECTION('',(-0.707106781187,0.707106781187,0.));
#102 = ORIENTED_EDGE('',*,*,#103,.T.);
#103 = EDGE_CURVE('',#96,#104,#106,.T.);
#104 = VERTEX_POINT('',#105);
#105 = CARTESIAN_POINT('',(-9.192458858915,-8.485210670758,-2.5));
#106 = LINE('',#107,#108);
#107 = CARTESIAN_POINT('',(-8.838834764836,-8.838834764838,-2.5));
#108 = VECTOR('',#109,1.);
#109 = DIRECTION('',(-0.707106781187,0.707106781187,0.));
#110 = ORIENTED_EDGE('',*,*,#111,.T.);
#111 = EDGE_CURVE('',#104,#112,#114,.T.);
#112 = VERTEX_POINT('',#113);
#113 = CARTESIAN_POINT('',(-10.25304832721,-7.424621202462,-2.5));
#114 = LINE('',#115,#116);
#115 = CARTESIAN_POINT('',(-8.838834764836,-8.838834764838,-2.5));
#116 = VECTOR('',#117,1.);
#117 = DIRECTION('',(-0.707106781187,0.707106781187,0.));
#118 = ORIENTED_EDGE('',*,*,#119,.T.);
#119 = EDGE_CURVE('',#112,#120,#122,.T.);
#120 = VERTEX_POINT('',#121);
#121 = CARTESIAN_POINT('',(-0.690898418394,2.137528706355,-31.5));
#122 = LINE('',#123,#124);
#123 = CARTESIAN_POINT('',(-10.25304832721,-7.424621202462,-2.5));
#124 = VECTOR('',#125,1.);
#125 = DIRECTION('',(0.29883623873,0.29883623873,-0.906307787037));
#126 = ORIENTED_EDGE('',*,*,#127,.F.);
#127 = EDGE_CURVE('',#128,#120,#130,.T.);
#128 = VERTEX_POINT('',#129);
#129 = CARTESIAN_POINT('',(-0.485298392609,2.210627933879,
    -31.92261826174));
#130 = ELLIPSE('',#131,1.103377918962,1.);
#131 = AXIS2_PLACEMENT_3D('',#132,#133,#134);
#132 = CARTESIAN_POINT('',(1.620836279266E-02,1.430421925169,-31.5));
#133 = DIRECTION('',(0.640856382056,0.640856382056,0.422618261741));
#134 = DIRECTION('',(0.29883623873,0.29883623873,-0.906307787037));
#135 = ORIENTED_EDGE('',*,*,#136,.F.);
#136 = EDGE_CURVE('',#137,#128,#139,.T.);
#137 = VERTEX_POINT('',#138);
#138 = CARTESIAN_POINT('',(2.210627933878,-0.485298392608,
    -31.92261826174));
#139 = LINE('',#140,#141);
#140 = CARTESIAN_POINT('',(2.276878333009,-0.551548791739,
    -31.92261826174));
#141 = VECTOR('',#142,1.);
#142 = DIRECTION('',(-0.707106781187,0.707106781186,1.665334536938E-16)
  );
#143 = ORIENTED_EDGE('',*,*,#144,.T.);
#144 = EDGE_CURVE('',#137,#24,#145,.T.);
#145 = ELLIPSE('',#146,1.103377918962,1.);
#146 = AXIS2_PLACEMENT_3D('',#147,#148,#149);
#147 = CARTESIAN_POINT('',(1.430421925168,1.620836279381E-02,-31.5));
#148 = DIRECTION('',(-0.640856382056,-0.640856382056,-0.422618261741));
#149 = DIRECTION('',(-0.29883623873,-0.29883623873,0.906307787037));
#150 = PLANE('',#151);
#151 = AXIS2_PLACEMENT_3D('',#152,#153,#154);
#152 = CARTESIAN_POINT('',(-7.424621202462,-10.25304832721,-2.5));
#153 = DIRECTION('',(-0.640856382056,-0.640856382056,-0.422618261741));
#154 = DIRECTION('',(0.29883623873,0.29883623873,-0.906307787037));
#155 = ADVANCED_FACE('',(#156),#193,.T.);
#156 = FACE_BOUND('',#157,.F.);
#157 = EDGE_LOOP('',(#158,#167,#168,#169,#178,#187));
#158 = ORIENTED_EDGE('',*,*,#159,.T.);
#159 = EDGE_CURVE('',#160,#137,#162,.T.);
#160 = VERTEX_POINT('',#161);
#161 = CARTESIAN_POINT('',(2.210627933878,0.796414371504,-32.5));
#162 = ELLIPSE('',#163,1.414213562373,1.);
#163 = AXIS2_PLACEMENT_3D('',#164,#165,#166);
#164 = CARTESIAN_POINT('',(2.210627933878,0.796414371504,-31.5));
#165 = DIRECTION('',(-1.,-1.504933621648E-13,1.177569344013E-16));
#166 = DIRECTION('',(-1.504933621648E-13,1.,1.177569344013E-16));
#167 = ORIENTED_EDGE('',*,*,#144,.T.);
#168 = ORIENTED_EDGE('',*,*,#80,.F.);
#169 = ORIENTED_EDGE('',*,*,#170,.F.);
#170 = EDGE_CURVE('',#171,#73,#173,.T.);
#171 = VERTEX_POINT('',#172);
#172 = CARTESIAN_POINT('',(6.604876874413,3.7979348314,-31.67364817766)
  );
#173 = ELLIPSE('',#174,1.015426611886,1.);
#174 = AXIS2_PLACEMENT_3D('',#175,#176,#177);
#175 = CARTESIAN_POINT('',(5.930163436835,4.515949874462,-31.5));
#176 = DIRECTION('',(-0.69636424032,-0.69636424032,0.173648177667));
#177 = DIRECTION('',(-0.122787803969,-0.122787803969,-0.984807753012));
#178 = ORIENTED_EDGE('',*,*,#179,.F.);
#179 = EDGE_CURVE('',#180,#171,#182,.T.);
#180 = VERTEX_POINT('',#181);
#181 = CARTESIAN_POINT('',(5.212148393773,3.7979348314,-32.5));
#182 = ELLIPSE('',#183,1.414213562373,1.);
#183 = AXIS2_PLACEMENT_3D('',#184,#185,#186);
#184 = CARTESIAN_POINT('',(5.212148393773,3.7979348314,-31.5));
#185 = DIRECTION('',(1.504933621648E-13,-1.,-1.177569344013E-16));
#186 = DIRECTION('',(-1.,-1.504933621648E-13,1.177569344013E-16));
#187 = ORIENTED_EDGE('',*,*,#188,.T.);
#188 = EDGE_CURVE('',#180,#160,#189,.T.);
#189 = LINE('',#190,#191);
#190 = CARTESIAN_POINT('',(5.80548143307,4.391267870696,-32.5));
#191 = VECTOR('',#192,1.);
#192 = DIRECTION('',(-0.707106781186,-0.707106781187,0.));
#193 = CYLINDRICAL_SURFACE('',#194,1.);
#194 = AXIS2_PLACEMENT_3D('',#195,#196,#197);
#195 = CARTESIAN_POINT('',(5.80548143307,4.391267870696,-31.5));
#196 = DIRECTION('',(-0.707106781186,-0.707106781187,0.));
#197 = DIRECTION('',(0.707106781187,-0.707106781186,0.));
#198 = ADVANCED_FACE('',(#199),#210,.T.);
#199 = FACE_BOUND('',#200,.T.);
#200 = EDGE_LOOP('',(#201,#202,#203));
#201 = ORIENTED_EDGE('',*,*,#95,.F.);
#202 = ORIENTED_EDGE('',*,*,#31,.F.);
#203 = ORIENTED_EDGE('',*,*,#204,.F.);
#204 = EDGE_CURVE('',#96,#32,#205,.T.);
#205 = CIRCLE('',#206,12.51);
#206 = AXIS2_PLACEMENT_3D('',#207,#208,#209);
#207 = CARTESIAN_POINT('',(0.,0.,-2.5));
#208 = DIRECTION('',(0.,0.,1.));
#209 = DIRECTION('',(1.,0.,0.));
#210 = PLANE('',#211);
#211 = AXIS2_PLACEMENT_3D('',#212,#213,#214);
#212 = CARTESIAN_POINT('',(-1.382618157894E-12,-5.512831570549E-13,-2.5)
  );
#213 = DIRECTION('',(0.,0.,1.));
#214 = DIRECTION('',(1.,0.,0.));
#215 = ADVANCED_FACE('',(#216),#267,.T.);
#216 = FACE_BOUND('',#217,.T.);
#217 = EDGE_LOOP('',(#218,#219,#220,#228,#237,#245,#253,#261));
#218 = ORIENTED_EDGE('',*,*,#72,.F.);
#219 = ORIENTED_EDGE('',*,*,#170,.F.);
#220 = ORIENTED_EDGE('',*,*,#221,.T.);
#221 = EDGE_CURVE('',#171,#222,#224,.T.);
#222 = VERTEX_POINT('',#223);
#223 = CARTESIAN_POINT('',(3.797934831398,6.604876874414,-31.67364817766
    ));
#224 = LINE('',#225,#226);
#225 = CARTESIAN_POINT('',(6.61561941528,3.787192290533,-31.67364817766)
  );
#226 = VECTOR('',#227,1.);
#227 = DIRECTION('',(-0.707106781187,0.707106781186,1.665334536938E-16)
  );
#228 = ORIENTED_EDGE('',*,*,#229,.T.);
#229 = EDGE_CURVE('',#222,#230,#232,.T.);
#230 = VERTEX_POINT('',#231);
#231 = CARTESIAN_POINT('',(3.808843093273,6.637270218022,-31.5));
#232 = ELLIPSE('',#233,1.015426611886,1.);
#233 = AXIS2_PLACEMENT_3D('',#234,#235,#236);
#234 = CARTESIAN_POINT('',(4.51594987446,5.930163436836,-31.5));
#235 = DIRECTION('',(0.69636424032,0.69636424032,-0.173648177667));
#236 = DIRECTION('',(0.12278780397,0.122787803968,0.984807753012));
#237 = ORIENTED_EDGE('',*,*,#238,.T.);
#238 = EDGE_CURVE('',#230,#239,#241,.T.);
#239 = VERTEX_POINT('',#240);
#240 = CARTESIAN_POINT('',(7.424621202462,10.253048327211,-2.5));
#241 = LINE('',#242,#243);
#242 = CARTESIAN_POINT('',(5.287867665998,8.116294790747,-19.63762589578
    ));
#243 = VECTOR('',#244,1.);
#244 = DIRECTION('',(0.122787803969,0.122787803969,0.984807753012));
#245 = ORIENTED_EDGE('',*,*,#246,.T.);
#246 = EDGE_CURVE('',#239,#247,#249,.T.);
#247 = VERTEX_POINT('',#248);
#248 = CARTESIAN_POINT('',(8.485210670741,9.192458858932,-2.5));
#249 = LINE('',#250,#251);
#250 = CARTESIAN_POINT('',(8.838834764835,8.838834764837,-2.5));
#251 = VECTOR('',#252,1.);
#252 = DIRECTION('',(0.707106781187,-0.707106781186,0.));
#253 = ORIENTED_EDGE('',*,*,#254,.T.);
#254 = EDGE_CURVE('',#247,#255,#257,.T.);
#255 = VERTEX_POINT('',#256);
#256 = CARTESIAN_POINT('',(9.19245885893,8.485210670743,-2.5));
#257 = LINE('',#258,#259);
#258 = CARTESIAN_POINT('',(8.838834764835,8.838834764837,-2.5));
#259 = VECTOR('',#260,1.);
#260 = DIRECTION('',(0.707106781187,-0.707106781186,0.));
#261 = ORIENTED_EDGE('',*,*,#262,.T.);
#262 = EDGE_CURVE('',#255,#65,#263,.T.);
#263 = LINE('',#264,#265);
#264 = CARTESIAN_POINT('',(8.838834764835,8.838834764837,-2.5));
#265 = VECTOR('',#266,1.);
#266 = DIRECTION('',(0.707106781187,-0.707106781186,0.));
#267 = PLANE('',#268);
#268 = AXIS2_PLACEMENT_3D('',#269,#270,#271);
#269 = CARTESIAN_POINT('',(6.512588214256,3.68416108951,-32.5));
#270 = DIRECTION('',(0.69636424032,0.69636424032,-0.173648177667));
#271 = DIRECTION('',(0.122787803969,0.122787803969,0.984807753012));
#272 = ADVANCED_FACE('',(#273,#309,#320),#331,.F.);
#273 = FACE_BOUND('',#274,.F.);
#274 = EDGE_LOOP('',(#275,#284,#291,#292,#301,#308));
#275 = ORIENTED_EDGE('',*,*,#276,.T.);
#276 = EDGE_CURVE('',#32,#277,#279,.T.);
#277 = VERTEX_POINT('',#278);
#278 = CARTESIAN_POINT('',(12.51,0.,-2.5));
#279 = CIRCLE('',#280,12.51);
#280 = AXIS2_PLACEMENT_3D('',#281,#282,#283);
#281 = CARTESIAN_POINT('',(0.,0.,-2.5));
#282 = DIRECTION('',(0.,0.,1.));
#283 = DIRECTION('',(1.,0.,0.));
#284 = ORIENTED_EDGE('',*,*,#285,.T.);
#285 = EDGE_CURVE('',#277,#57,#286,.T.);
#286 = CIRCLE('',#287,12.51);
#287 = AXIS2_PLACEMENT_3D('',#288,#289,#290);
#288 = CARTESIAN_POINT('',(0.,0.,-2.5));
#289 = DIRECTION('',(0.,0.,1.));
#290 = DIRECTION('',(1.,0.,0.));
#291 = ORIENTED_EDGE('',*,*,#56,.T.);
#292 = ORIENTED_EDGE('',*,*,#293,.F.);
#293 = EDGE_CURVE('',#294,#48,#296,.T.);
#294 = VERTEX_POINT('',#295);
#295 = CARTESIAN_POINT('',(5.,0.,-2.5));
#296 = CIRCLE('',#297,5.);
#297 = AXIS2_PLACEMENT_3D('',#298,#299,#300);
#298 = CARTESIAN_POINT('',(0.,0.,-2.5));
#299 = DIRECTION('',(0.,0.,1.));
#300 = DIRECTION('',(1.,0.,0.));
#301 = ORIENTED_EDGE('',*,*,#302,.F.);
#302 = EDGE_CURVE('',#40,#294,#303,.T.);
#303 = CIRCLE('',#304,5.);
#304 = AXIS2_PLACEMENT_3D('',#305,#306,#307);
#305 = CARTESIAN_POINT('',(0.,0.,-2.5));
#306 = DIRECTION('',(0.,0.,1.));
#307 = DIRECTION('',(1.,0.,0.));
#308 = ORIENTED_EDGE('',*,*,#39,.T.);
#309 = FACE_BOUND('',#310,.F.);
#310 = EDGE_LOOP('',(#311));
#311 = ORIENTED_EDGE('',*,*,#312,.F.);
#312 = EDGE_CURVE('',#313,#313,#315,.T.);
#313 = VERTEX_POINT('',#314);
#314 = CARTESIAN_POINT('',(1.75,-7.75,-2.5));
#315 = CIRCLE('',#316,1.75);
#316 = AXIS2_PLACEMENT_3D('',#317,#318,#319);
#317 = CARTESIAN_POINT('',(0.,-7.75,-2.5));
#318 = DIRECTION('',(0.,0.,1.));
#319 = DIRECTION('',(1.,0.,0.));
#320 = FACE_BOUND('',#321,.F.);
#321 = EDGE_LOOP('',(#322));
#322 = ORIENTED_EDGE('',*,*,#323,.F.);
#323 = EDGE_CURVE('',#324,#324,#326,.T.);
#324 = VERTEX_POINT('',#325);
#325 = CARTESIAN_POINT('',(11.,0.,-2.5));
#326 = CIRCLE('',#327,1.75);
#327 = AXIS2_PLACEMENT_3D('',#328,#329,#330);
#328 = CARTESIAN_POINT('',(9.25,0.,-2.5));
#329 = DIRECTION('',(0.,0.,1.));
#330 = DIRECTION('',(1.,0.,0.));
#331 = PLANE('',#332);
#332 = AXIS2_PLACEMENT_3D('',#333,#334,#335);
#333 = CARTESIAN_POINT('',(-4.71640230899E-16,2.658911368827E-16,-2.5));
#334 = DIRECTION('',(0.,0.,1.));
#335 = DIRECTION('',(1.,0.,0.));
#336 = ADVANCED_FACE('',(#337),#348,.T.);
#337 = FACE_BOUND('',#338,.T.);
#338 = EDGE_LOOP('',(#339,#346,#347));
#339 = ORIENTED_EDGE('',*,*,#340,.F.);
#340 = EDGE_CURVE('',#57,#255,#341,.T.);
#341 = CIRCLE('',#342,12.51);
#342 = AXIS2_PLACEMENT_3D('',#343,#344,#345);
#343 = CARTESIAN_POINT('',(0.,0.,-2.5));
#344 = DIRECTION('',(0.,0.,1.));
#345 = DIRECTION('',(1.,0.,0.));
#346 = ORIENTED_EDGE('',*,*,#64,.F.);
#347 = ORIENTED_EDGE('',*,*,#262,.F.);
#348 = PLANE('',#349);
#349 = AXIS2_PLACEMENT_3D('',#350,#351,#352);
#350 = CARTESIAN_POINT('',(-1.382618157894E-12,-5.512831570549E-13,-2.5)
  );
#351 = DIRECTION('',(0.,0.,1.));
#352 = DIRECTION('',(1.,0.,0.));
#353 = ADVANCED_FACE('',(#354),#380,.F.);
#354 = FACE_BOUND('',#355,.F.);
#355 = EDGE_LOOP('',(#356,#357,#365,#374));
#356 = ORIENTED_EDGE('',*,*,#47,.F.);
#357 = ORIENTED_EDGE('',*,*,#358,.T.);
#358 = EDGE_CURVE('',#40,#359,#361,.T.);
#359 = VERTEX_POINT('',#360);
#360 = CARTESIAN_POINT('',(-4.654583911578,-1.826156786828,-2.5));
#361 = LINE('',#362,#363);
#362 = CARTESIAN_POINT('',(-1.826156786823,-4.654583911572,
    -2.500000000001));
#363 = VECTOR('',#364,1.);
#364 = DIRECTION('',(-0.707106781187,0.707106781186,1.665334536938E-16)
  );
#365 = ORIENTED_EDGE('',*,*,#366,.T.);
#366 = EDGE_CURVE('',#359,#367,#369,.T.);
#367 = VERTEX_POINT('',#368);
#368 = CARTESIAN_POINT('',(1.826156786829,4.654583911578,-2.5));
#369 = CIRCLE('',#370,4.582575694947);
#370 = AXIS2_PLACEMENT_3D('',#371,#372,#373);
#371 = CARTESIAN_POINT('',(-1.414213562375,1.414213562375,-2.5));
#372 = DIRECTION('',(0.707106781187,-0.707106781186,-1.962615573355E-16)
  );
#373 = DIRECTION('',(0.707106781186,0.707106781187,5.551115123126E-17));
#374 = ORIENTED_EDGE('',*,*,#375,.F.);
#375 = EDGE_CURVE('',#48,#367,#376,.T.);
#376 = LINE('',#377,#378);
#377 = CARTESIAN_POINT('',(4.654583911571,1.826156786825,-2.5));
#378 = VECTOR('',#379,1.);
#379 = DIRECTION('',(-0.707106781187,0.707106781186,1.665334536938E-16)
  );
#380 = CYLINDRICAL_SURFACE('',#381,4.582575694947);
#381 = AXIS2_PLACEMENT_3D('',#382,#383,#384);
#382 = CARTESIAN_POINT('',(1.414213562374,-1.414213562374,-2.5));
#383 = DIRECTION('',(0.707106781187,-0.707106781186,-1.962615573355E-16)
  );
#384 = DIRECTION('',(0.707106781186,0.707106781187,5.551115123126E-17));
#385 = ADVANCED_FACE('',(#386),#405,.T.);
#386 = FACE_BOUND('',#387,.F.);
#387 = EDGE_LOOP('',(#388,#389,#397,#404));
#388 = ORIENTED_EDGE('',*,*,#159,.F.);
#389 = ORIENTED_EDGE('',*,*,#390,.T.);
#390 = EDGE_CURVE('',#160,#391,#393,.T.);
#391 = VERTEX_POINT('',#392);
#392 = CARTESIAN_POINT('',(0.796414371503,2.210627933879,-32.5));
#393 = LINE('',#394,#395);
#394 = CARTESIAN_POINT('',(2.917734715065,8.930759031737E-02,-32.5));
#395 = VECTOR('',#396,1.);
#396 = DIRECTION('',(-0.707106781187,0.707106781186,1.665334536938E-16)
  );
#397 = ORIENTED_EDGE('',*,*,#398,.T.);
#398 = EDGE_CURVE('',#391,#128,#399,.T.);
#399 = ELLIPSE('',#400,1.414213562373,1.);
#400 = AXIS2_PLACEMENT_3D('',#401,#402,#403);
#401 = CARTESIAN_POINT('',(0.796414371503,2.210627933879,-31.5));
#402 = DIRECTION('',(-6.201865211801E-14,1.,1.177569344013E-16));
#403 = DIRECTION('',(-1.,-6.201865211801E-14,1.177569344013E-16));
#404 = ORIENTED_EDGE('',*,*,#136,.F.);
#405 = CYLINDRICAL_SURFACE('',#406,1.);
#406 = AXIS2_PLACEMENT_3D('',#407,#408,#409);
#407 = CARTESIAN_POINT('',(2.917734715065,8.930759031737E-02,-31.5));
#408 = DIRECTION('',(-0.707106781187,0.707106781186,1.665334536938E-16)
  );
#409 = DIRECTION('',(-0.640856382056,-0.640856382056,-0.422618261741));
#410 = ADVANCED_FACE('',(#411),#421,.F.);
#411 = FACE_BOUND('',#412,.F.);
#412 = EDGE_LOOP('',(#413,#420));
#413 = ORIENTED_EDGE('',*,*,#414,.T.);
#414 = EDGE_CURVE('',#104,#96,#415,.T.);
#415 = CIRCLE('',#416,12.51);
#416 = AXIS2_PLACEMENT_3D('',#417,#418,#419);
#417 = CARTESIAN_POINT('',(0.,0.,-2.5));
#418 = DIRECTION('',(0.,0.,1.));
#419 = DIRECTION('',(1.,0.,0.));
#420 = ORIENTED_EDGE('',*,*,#103,.T.);
#421 = PLANE('',#422);
#422 = AXIS2_PLACEMENT_3D('',#423,#424,#425);
#423 = CARTESIAN_POINT('',(-4.71640230899E-16,2.658911368827E-16,-2.5));
#424 = DIRECTION('',(0.,0.,1.));
#425 = DIRECTION('',(1.,0.,0.));
#426 = ADVANCED_FACE('',(#427),#453,.T.);
#427 = FACE_BOUND('',#428,.F.);
#428 = EDGE_LOOP('',(#429,#430,#438,#445,#446,#452));
#429 = ORIENTED_EDGE('',*,*,#398,.F.);
#430 = ORIENTED_EDGE('',*,*,#431,.T.);
#431 = EDGE_CURVE('',#391,#432,#434,.T.);
#432 = VERTEX_POINT('',#433);
#433 = CARTESIAN_POINT('',(3.797934831398,5.212148393774,-32.5));
#434 = LINE('',#435,#436);
#435 = CARTESIAN_POINT('',(0.345937669993,1.760151232369,-32.5));
#436 = VECTOR('',#437,1.);
#437 = DIRECTION('',(0.707106781187,0.707106781187,0.));
#438 = ORIENTED_EDGE('',*,*,#439,.T.);
#439 = EDGE_CURVE('',#432,#222,#440,.T.);
#440 = ELLIPSE('',#441,1.414213562373,1.);
#441 = AXIS2_PLACEMENT_3D('',#442,#443,#444);
#442 = CARTESIAN_POINT('',(3.797934831398,5.212148393774,-31.5));
#443 = DIRECTION('',(1.,6.2018652118E-14,-1.177569344013E-16));
#444 = DIRECTION('',(-6.2018652118E-14,1.,1.177569344013E-16));
#445 = ORIENTED_EDGE('',*,*,#229,.T.);
#446 = ORIENTED_EDGE('',*,*,#447,.F.);
#447 = EDGE_CURVE('',#120,#230,#448,.T.);
#448 = LINE('',#449,#450);
#449 = CARTESIAN_POINT('',(-0.361169111193,2.467258013556,-31.5));
#450 = VECTOR('',#451,1.);
#451 = DIRECTION('',(0.707106781187,0.707106781187,0.));
#452 = ORIENTED_EDGE('',*,*,#127,.F.);
#453 = CYLINDRICAL_SURFACE('',#454,1.);
#454 = AXIS2_PLACEMENT_3D('',#455,#456,#457);
#455 = CARTESIAN_POINT('',(0.345937669993,1.760151232369,-31.5));
#456 = DIRECTION('',(0.707106781187,0.707106781187,0.));
#457 = DIRECTION('',(-0.707106781187,0.707106781187,0.));
#458 = ADVANCED_FACE('',(#459),#477,.T.);
#459 = FACE_BOUND('',#460,.T.);
#460 = EDGE_LOOP('',(#461,#462,#471));
#461 = ORIENTED_EDGE('',*,*,#111,.F.);
#462 = ORIENTED_EDGE('',*,*,#463,.F.);
#463 = EDGE_CURVE('',#464,#104,#466,.T.);
#464 = VERTEX_POINT('',#465);
#465 = CARTESIAN_POINT('',(-10.14634102365,-7.317913898902,-2.5));
#466 = CIRCLE('',#467,12.51);
#467 = AXIS2_PLACEMENT_3D('',#468,#469,#470);
#468 = CARTESIAN_POINT('',(0.,0.,-2.5));
#469 = DIRECTION('',(0.,0.,1.));
#470 = DIRECTION('',(1.,0.,0.));
#471 = ORIENTED_EDGE('',*,*,#472,.F.);
#472 = EDGE_CURVE('',#112,#464,#473,.T.);
#473 = LINE('',#474,#475);
#474 = CARTESIAN_POINT('',(-10.25304832721,-7.424621202462,-2.5));
#475 = VECTOR('',#476,1.);
#476 = DIRECTION('',(0.707106781187,0.707106781187,0.));
#477 = PLANE('',#478);
#478 = AXIS2_PLACEMENT_3D('',#479,#480,#481);
#479 = CARTESIAN_POINT('',(-1.382618157894E-12,-5.512831570549E-13,-2.5)
  );
#480 = DIRECTION('',(0.,0.,1.));
#481 = DIRECTION('',(1.,0.,0.));
#482 = ADVANCED_FACE('',(#483),#510,.F.);
#483 = FACE_BOUND('',#484,.F.);
#484 = EDGE_LOOP('',(#485,#486,#494,#500,#501,#507,#508,#509));
#485 = ORIENTED_EDGE('',*,*,#238,.T.);
#486 = ORIENTED_EDGE('',*,*,#487,.F.);
#487 = EDGE_CURVE('',#488,#239,#490,.T.);
#488 = VERTEX_POINT('',#489);
#489 = CARTESIAN_POINT('',(7.317913898903,10.146341023652,-2.5));
#490 = LINE('',#491,#492);
#491 = CARTESIAN_POINT('',(-10.25304832721,-7.424621202462,-2.5));
#492 = VECTOR('',#493,1.);
#493 = DIRECTION('',(0.707106781187,0.707106781187,0.));
#494 = ORIENTED_EDGE('',*,*,#495,.F.);
#495 = EDGE_CURVE('',#367,#488,#496,.T.);
#496 = LINE('',#497,#498);
#497 = CARTESIAN_POINT('',(-10.25304832721,-7.424621202462,-2.5));
#498 = VECTOR('',#499,1.);
#499 = DIRECTION('',(0.707106781187,0.707106781187,0.));
#500 = ORIENTED_EDGE('',*,*,#366,.F.);
#501 = ORIENTED_EDGE('',*,*,#502,.F.);
#502 = EDGE_CURVE('',#464,#359,#503,.T.);
#503 = LINE('',#504,#505);
#504 = CARTESIAN_POINT('',(-10.25304832721,-7.424621202462,-2.5));
#505 = VECTOR('',#506,1.);
#506 = DIRECTION('',(0.707106781187,0.707106781187,0.));
#507 = ORIENTED_EDGE('',*,*,#472,.F.);
#508 = ORIENTED_EDGE('',*,*,#119,.T.);
#509 = ORIENTED_EDGE('',*,*,#447,.T.);
#510 = PLANE('',#511);
#511 = AXIS2_PLACEMENT_3D('',#512,#513,#514);
#512 = CARTESIAN_POINT('',(-10.25304832721,-7.424621202462,-2.5));
#513 = DIRECTION('',(0.707106781187,-0.707106781187,0.));
#514 = DIRECTION('',(0.707106781187,0.707106781187,0.));
#515 = ADVANCED_FACE('',(#516),#527,.F.);
#516 = FACE_BOUND('',#517,.F.);
#517 = EDGE_LOOP('',(#518,#519,#520,#526));
#518 = ORIENTED_EDGE('',*,*,#390,.F.);
#519 = ORIENTED_EDGE('',*,*,#188,.F.);
#520 = ORIENTED_EDGE('',*,*,#521,.T.);
#521 = EDGE_CURVE('',#180,#432,#522,.T.);
#522 = LINE('',#523,#524);
#523 = CARTESIAN_POINT('',(5.91925517496,3.090828050213,-32.5));
#524 = VECTOR('',#525,1.);
#525 = DIRECTION('',(-0.707106781187,0.707106781186,1.665334536938E-16)
  );
#526 = ORIENTED_EDGE('',*,*,#431,.F.);
#527 = PLANE('',#528);
#528 = AXIS2_PLACEMENT_3D('',#529,#530,#531);
#529 = CARTESIAN_POINT('',(-1.382618157894E-12,-5.512831570549E-13,-32.5
    ));
#530 = DIRECTION('',(0.,0.,1.));
#531 = DIRECTION('',(1.,0.,0.));
#532 = ADVANCED_FACE('',(#533),#539,.T.);
#533 = FACE_BOUND('',#534,.T.);
#534 = EDGE_LOOP('',(#535,#536,#537,#538));
#535 = ORIENTED_EDGE('',*,*,#179,.F.);
#536 = ORIENTED_EDGE('',*,*,#521,.T.);
#537 = ORIENTED_EDGE('',*,*,#439,.T.);
#538 = ORIENTED_EDGE('',*,*,#221,.F.);
#539 = CYLINDRICAL_SURFACE('',#540,1.);
#540 = AXIS2_PLACEMENT_3D('',#541,#542,#543);
#541 = CARTESIAN_POINT('',(5.91925517496,3.090828050213,-31.5));
#542 = DIRECTION('',(-0.707106781187,0.707106781186,1.665334536938E-16)
  );
#543 = DIRECTION('',(0.69636424032,0.69636424032,-0.173648177667));
#544 = ADVANCED_FACE('',(#545),#609,.T.);
#545 = FACE_BOUND('',#546,.F.);
#546 = EDGE_LOOP('',(#547,#556,#563,#564,#565,#566,#573,#580,#589,#598,
    #605,#606,#607,#608));
#547 = ORIENTED_EDGE('',*,*,#548,.F.);
#548 = EDGE_CURVE('',#549,#277,#551,.T.);
#549 = VERTEX_POINT('',#550);
#550 = CARTESIAN_POINT('',(15.,0.,-1.E-02));
#551 = CIRCLE('',#552,2.49);
#552 = AXIS2_PLACEMENT_3D('',#553,#554,#555);
#553 = CARTESIAN_POINT('',(12.51,0.,-1.E-02));
#554 = DIRECTION('',(-0.,1.,0.));
#555 = DIRECTION('',(1.,0.,0.));
#556 = ORIENTED_EDGE('',*,*,#557,.F.);
#557 = EDGE_CURVE('',#549,#549,#558,.T.);
#558 = CIRCLE('',#559,15.);
#559 = AXIS2_PLACEMENT_3D('',#560,#561,#562);
#560 = CARTESIAN_POINT('',(0.,0.,-1.E-02));
#561 = DIRECTION('',(0.,0.,1.));
#562 = DIRECTION('',(1.,0.,0.));
#563 = ORIENTED_EDGE('',*,*,#548,.T.);
#564 = ORIENTED_EDGE('',*,*,#285,.T.);
#565 = ORIENTED_EDGE('',*,*,#340,.T.);
#566 = ORIENTED_EDGE('',*,*,#567,.T.);
#567 = EDGE_CURVE('',#255,#247,#568,.T.);
#568 = CIRCLE('',#569,12.51);
#569 = AXIS2_PLACEMENT_3D('',#570,#571,#572);
#570 = CARTESIAN_POINT('',(0.,0.,-2.5));
#571 = DIRECTION('',(0.,0.,1.));
#572 = DIRECTION('',(1.,0.,0.));
#573 = ORIENTED_EDGE('',*,*,#574,.T.);
#574 = EDGE_CURVE('',#247,#488,#575,.T.);
#575 = CIRCLE('',#576,12.51);
#576 = AXIS2_PLACEMENT_3D('',#577,#578,#579);
#577 = CARTESIAN_POINT('',(0.,0.,-2.5));
#578 = DIRECTION('',(0.,0.,1.));
#579 = DIRECTION('',(1.,0.,0.));
#580 = ORIENTED_EDGE('',*,*,#581,.T.);
#581 = EDGE_CURVE('',#488,#582,#584,.T.);
#582 = VERTEX_POINT('',#583);
#583 = CARTESIAN_POINT('',(-4.990671504666,11.47141220306,-2.5));
#584 = CIRCLE('',#585,12.51);
#585 = AXIS2_PLACEMENT_3D('',#586,#587,#588);
#586 = CARTESIAN_POINT('',(0.,0.,-2.5));
#587 = DIRECTION('',(0.,0.,1.));
#588 = DIRECTION('',(1.,0.,0.));
#589 = ORIENTED_EDGE('',*,*,#590,.T.);
#590 = EDGE_CURVE('',#582,#591,#593,.T.);
#591 = VERTEX_POINT('',#592);
#592 = CARTESIAN_POINT('',(-11.47141220306,4.990671504663,
    -2.500000000001));
#593 = CIRCLE('',#594,12.51);
#594 = AXIS2_PLACEMENT_3D('',#595,#596,#597);
#595 = CARTESIAN_POINT('',(0.,0.,-2.5));
#596 = DIRECTION('',(0.,0.,1.));
#597 = DIRECTION('',(1.,0.,0.));
#598 = ORIENTED_EDGE('',*,*,#599,.T.);
#599 = EDGE_CURVE('',#591,#464,#600,.T.);
#600 = CIRCLE('',#601,12.51);
#601 = AXIS2_PLACEMENT_3D('',#602,#603,#604);
#602 = CARTESIAN_POINT('',(0.,0.,-2.5));
#603 = DIRECTION('',(0.,0.,1.));
#604 = DIRECTION('',(1.,0.,0.));
#605 = ORIENTED_EDGE('',*,*,#463,.T.);
#606 = ORIENTED_EDGE('',*,*,#414,.T.);
#607 = ORIENTED_EDGE('',*,*,#204,.T.);
#608 = ORIENTED_EDGE('',*,*,#276,.T.);
#609 = TOROIDAL_SURFACE('',#610,12.51,2.49);
#610 = AXIS2_PLACEMENT_3D('',#611,#612,#613);
#611 = CARTESIAN_POINT('',(0.,0.,-1.E-02));
#612 = DIRECTION('',(-0.,-0.,-1.));
#613 = DIRECTION('',(1.,0.,0.));
#614 = ADVANCED_FACE('',(#615),#619,.F.);
#615 = FACE_BOUND('',#616,.F.);
#616 = EDGE_LOOP('',(#617,#618));
#617 = ORIENTED_EDGE('',*,*,#254,.T.);
#618 = ORIENTED_EDGE('',*,*,#567,.T.);
#619 = PLANE('',#620);
#620 = AXIS2_PLACEMENT_3D('',#621,#622,#623);
#621 = CARTESIAN_POINT('',(-4.71640230899E-16,2.658911368827E-16,-2.5));
#622 = DIRECTION('',(0.,0.,1.));
#623 = DIRECTION('',(1.,0.,0.));
#624 = ADVANCED_FACE('',(#625),#630,.T.);
#625 = FACE_BOUND('',#626,.T.);
#626 = EDGE_LOOP('',(#627,#628,#629));
#627 = ORIENTED_EDGE('',*,*,#487,.F.);
#628 = ORIENTED_EDGE('',*,*,#574,.F.);
#629 = ORIENTED_EDGE('',*,*,#246,.F.);
#630 = PLANE('',#631);
#631 = AXIS2_PLACEMENT_3D('',#632,#633,#634);
#632 = CARTESIAN_POINT('',(-1.382618157894E-12,-5.512831570549E-13,-2.5)
  );
#633 = DIRECTION('',(0.,0.,1.));
#634 = DIRECTION('',(1.,0.,0.));
#635 = ADVANCED_FACE('',(#636),#677,.F.);
#636 = FACE_BOUND('',#637,.F.);
#637 = EDGE_LOOP('',(#638,#646,#653,#654,#655,#662,#669,#676));
#638 = ORIENTED_EDGE('',*,*,#639,.F.);
#639 = EDGE_CURVE('',#640,#294,#642,.T.);
#640 = VERTEX_POINT('',#641);
#641 = CARTESIAN_POINT('',(5.,0.,0.));
#642 = LINE('',#643,#644);
#643 = CARTESIAN_POINT('',(5.,0.,0.));
#644 = VECTOR('',#645,1.);
#645 = DIRECTION('',(-0.,-0.,-1.));
#646 = ORIENTED_EDGE('',*,*,#647,.F.);
#647 = EDGE_CURVE('',#640,#640,#648,.T.);
#648 = CIRCLE('',#649,5.);
#649 = AXIS2_PLACEMENT_3D('',#650,#651,#652);
#650 = CARTESIAN_POINT('',(0.,0.,0.));
#651 = DIRECTION('',(0.,0.,1.));
#652 = DIRECTION('',(1.,0.,0.));
#653 = ORIENTED_EDGE('',*,*,#639,.T.);
#654 = ORIENTED_EDGE('',*,*,#293,.T.);
#655 = ORIENTED_EDGE('',*,*,#656,.T.);
#656 = EDGE_CURVE('',#48,#367,#657,.T.);
#657 = CIRCLE('',#658,5.);
#658 = AXIS2_PLACEMENT_3D('',#659,#660,#661);
#659 = CARTESIAN_POINT('',(0.,0.,-2.5));
#660 = DIRECTION('',(0.,0.,1.));
#661 = DIRECTION('',(1.,0.,0.));
#662 = ORIENTED_EDGE('',*,*,#663,.T.);
#663 = EDGE_CURVE('',#367,#359,#664,.T.);
#664 = CIRCLE('',#665,5.);
#665 = AXIS2_PLACEMENT_3D('',#666,#667,#668);
#666 = CARTESIAN_POINT('',(0.,0.,-2.5));
#667 = DIRECTION('',(0.,0.,1.));
#668 = DIRECTION('',(1.,0.,0.));
#669 = ORIENTED_EDGE('',*,*,#670,.T.);
#670 = EDGE_CURVE('',#359,#40,#671,.T.);
#671 = CIRCLE('',#672,5.);
#672 = AXIS2_PLACEMENT_3D('',#673,#674,#675);
#673 = CARTESIAN_POINT('',(0.,0.,-2.5));
#674 = DIRECTION('',(0.,0.,1.));
#675 = DIRECTION('',(1.,0.,0.));
#676 = ORIENTED_EDGE('',*,*,#302,.T.);
#677 = CYLINDRICAL_SURFACE('',#678,5.);
#678 = AXIS2_PLACEMENT_3D('',#679,#680,#681);
#679 = CARTESIAN_POINT('',(0.,0.,0.));
#680 = DIRECTION('',(0.,0.,1.));
#681 = DIRECTION('',(1.,0.,0.));
#682 = ADVANCED_FACE('',(#683),#702,.F.);
#683 = FACE_BOUND('',#684,.F.);
#684 = EDGE_LOOP('',(#685,#693,#694,#695));
#685 = ORIENTED_EDGE('',*,*,#686,.T.);
#686 = EDGE_CURVE('',#687,#313,#689,.T.);
#687 = VERTEX_POINT('',#688);
#688 = CARTESIAN_POINT('',(1.75,-7.75,0.));
#689 = LINE('',#690,#691);
#690 = CARTESIAN_POINT('',(1.75,-7.75,0.));
#691 = VECTOR('',#692,1.);
#692 = DIRECTION('',(-0.,-0.,-1.));
#693 = ORIENTED_EDGE('',*,*,#312,.T.);
#694 = ORIENTED_EDGE('',*,*,#686,.F.);
#695 = ORIENTED_EDGE('',*,*,#696,.F.);
#696 = EDGE_CURVE('',#687,#687,#697,.T.);
#697 = CIRCLE('',#698,1.75);
#698 = AXIS2_PLACEMENT_3D('',#699,#700,#701);
#699 = CARTESIAN_POINT('',(0.,-7.75,0.));
#700 = DIRECTION('',(0.,0.,1.));
#701 = DIRECTION('',(1.,0.,0.));
#702 = CYLINDRICAL_SURFACE('',#703,1.75);
#703 = AXIS2_PLACEMENT_3D('',#704,#705,#706);
#704 = CARTESIAN_POINT('',(0.,-7.75,0.));
#705 = DIRECTION('',(0.,0.,1.));
#706 = DIRECTION('',(1.,0.,0.));
#707 = ADVANCED_FACE('',(#708),#727,.F.);
#708 = FACE_BOUND('',#709,.F.);
#709 = EDGE_LOOP('',(#710,#718,#719,#720));
#710 = ORIENTED_EDGE('',*,*,#711,.T.);
#711 = EDGE_CURVE('',#712,#324,#714,.T.);
#712 = VERTEX_POINT('',#713);
#713 = CARTESIAN_POINT('',(11.,0.,0.));
#714 = LINE('',#715,#716);
#715 = CARTESIAN_POINT('',(11.,0.,0.));
#716 = VECTOR('',#717,1.);
#717 = DIRECTION('',(-0.,-0.,-1.));
#718 = ORIENTED_EDGE('',*,*,#323,.T.);
#719 = ORIENTED_EDGE('',*,*,#711,.F.);
#720 = ORIENTED_EDGE('',*,*,#721,.F.);
#721 = EDGE_CURVE('',#712,#712,#722,.T.);
#722 = CIRCLE('',#723,1.75);
#723 = AXIS2_PLACEMENT_3D('',#724,#725,#726);
#724 = CARTESIAN_POINT('',(9.25,0.,0.));
#725 = DIRECTION('',(0.,0.,1.));
#726 = DIRECTION('',(1.,0.,0.));
#727 = CYLINDRICAL_SURFACE('',#728,1.75);
#728 = AXIS2_PLACEMENT_3D('',#729,#730,#731);
#729 = CARTESIAN_POINT('',(9.25,0.,0.));
#730 = DIRECTION('',(0.,0.,1.));
#731 = DIRECTION('',(1.,0.,0.));
#732 = ADVANCED_FACE('',(#733),#737,.T.);
#733 = FACE_BOUND('',#734,.T.);
#734 = EDGE_LOOP('',(#735,#736));
#735 = ORIENTED_EDGE('',*,*,#656,.T.);
#736 = ORIENTED_EDGE('',*,*,#375,.F.);
#737 = PLANE('',#738);
#738 = AXIS2_PLACEMENT_3D('',#739,#740,#741);
#739 = CARTESIAN_POINT('',(-1.382618157894E-12,-5.512831570549E-13,-2.5)
  );
#740 = DIRECTION('',(0.,0.,1.));
#741 = DIRECTION('',(1.,0.,0.));
#742 = ADVANCED_FACE('',(#743),#747,.T.);
#743 = FACE_BOUND('',#744,.T.);
#744 = EDGE_LOOP('',(#745,#746));
#745 = ORIENTED_EDGE('',*,*,#358,.T.);
#746 = ORIENTED_EDGE('',*,*,#670,.T.);
#747 = PLANE('',#748);
#748 = AXIS2_PLACEMENT_3D('',#749,#750,#751);
#749 = CARTESIAN_POINT('',(-1.382618157894E-12,-5.512831570549E-13,-2.5)
  );
#750 = DIRECTION('',(0.,0.,1.));
#751 = DIRECTION('',(1.,0.,0.));
#752 = ADVANCED_FACE('',(#753,#761,#772),#801,.T.);
#753 = FACE_BOUND('',#754,.T.);
#754 = EDGE_LOOP('',(#755,#756,#757,#758,#759,#760));
#755 = ORIENTED_EDGE('',*,*,#581,.F.);
#756 = ORIENTED_EDGE('',*,*,#495,.F.);
#757 = ORIENTED_EDGE('',*,*,#663,.T.);
#758 = ORIENTED_EDGE('',*,*,#502,.F.);
#759 = ORIENTED_EDGE('',*,*,#599,.F.);
#760 = ORIENTED_EDGE('',*,*,#590,.F.);
#761 = FACE_BOUND('',#762,.T.);
#762 = EDGE_LOOP('',(#763));
#763 = ORIENTED_EDGE('',*,*,#764,.T.);
#764 = EDGE_CURVE('',#765,#765,#767,.T.);
#765 = VERTEX_POINT('',#766);
#766 = CARTESIAN_POINT('',(-7.5,0.,-2.5));
#767 = CIRCLE('',#768,1.75);
#768 = AXIS2_PLACEMENT_3D('',#769,#770,#771);
#769 = CARTESIAN_POINT('',(-9.25,0.,-2.5));
#770 = DIRECTION('',(0.,0.,1.));
#771 = DIRECTION('',(1.,0.,0.));
#772 = FACE_BOUND('',#773,.T.);
#773 = EDGE_LOOP('',(#774,#785,#794));
#774 = ORIENTED_EDGE('',*,*,#775,.T.);
#775 = EDGE_CURVE('',#776,#778,#780,.T.);
#776 = VERTEX_POINT('',#777);
#777 = CARTESIAN_POINT('',(0.427676899268,6.053063799127,-2.5));
#778 = VERTEX_POINT('',#779);
#779 = CARTESIAN_POINT('',(1.75,7.75,-2.5));
#780 = CIRCLE('',#781,1.75);
#781 = AXIS2_PLACEMENT_3D('',#782,#783,#784);
#782 = CARTESIAN_POINT('',(0.,7.75,-2.5));
#783 = DIRECTION('',(0.,0.,1.));
#784 = DIRECTION('',(1.,0.,0.));
#785 = ORIENTED_EDGE('',*,*,#786,.T.);
#786 = EDGE_CURVE('',#778,#787,#789,.T.);
#787 = VERTEX_POINT('',#788);
#788 = CARTESIAN_POINT('',(-1.696936200873,8.177676899267,-2.5));
#789 = CIRCLE('',#790,1.75);
#790 = AXIS2_PLACEMENT_3D('',#791,#792,#793);
#791 = CARTESIAN_POINT('',(0.,7.75,-2.5));
#792 = DIRECTION('',(0.,0.,1.));
#793 = DIRECTION('',(1.,0.,0.));
#794 = ORIENTED_EDGE('',*,*,#795,.T.);
#795 = EDGE_CURVE('',#787,#776,#796,.T.);
#796 = CIRCLE('',#797,1.75);
#797 = AXIS2_PLACEMENT_3D('',#798,#799,#800);
#798 = CARTESIAN_POINT('',(0.,7.75,-2.5));
#799 = DIRECTION('',(0.,0.,1.));
#800 = DIRECTION('',(1.,0.,0.));
#801 = PLANE('',#802);
#802 = AXIS2_PLACEMENT_3D('',#803,#804,#805);
#803 = CARTESIAN_POINT('',(-4.321170432307,4.321170432307,-2.5));
#804 = DIRECTION('',(-0.,-0.,-1.));
#805 = DIRECTION('',(-1.,0.,0.));
#806 = ADVANCED_FACE('',(#807),#826,.T.);
#807 = FACE_BOUND('',#808,.T.);
#808 = EDGE_LOOP('',(#809,#817,#818,#819));
#809 = ORIENTED_EDGE('',*,*,#810,.T.);
#810 = EDGE_CURVE('',#811,#549,#813,.T.);
#811 = VERTEX_POINT('',#812);
#812 = CARTESIAN_POINT('',(15.,0.,0.));
#813 = LINE('',#814,#815);
#814 = CARTESIAN_POINT('',(15.,0.,0.));
#815 = VECTOR('',#816,1.);
#816 = DIRECTION('',(-0.,-0.,-1.));
#817 = ORIENTED_EDGE('',*,*,#557,.T.);
#818 = ORIENTED_EDGE('',*,*,#810,.F.);
#819 = ORIENTED_EDGE('',*,*,#820,.F.);
#820 = EDGE_CURVE('',#811,#811,#821,.T.);
#821 = CIRCLE('',#822,15.);
#822 = AXIS2_PLACEMENT_3D('',#823,#824,#825);
#823 = CARTESIAN_POINT('',(0.,0.,0.));
#824 = DIRECTION('',(0.,0.,1.));
#825 = DIRECTION('',(1.,0.,0.));
#826 = CYLINDRICAL_SURFACE('',#827,15.);
#827 = AXIS2_PLACEMENT_3D('',#828,#829,#830);
#828 = CARTESIAN_POINT('',(0.,0.,0.));
#829 = DIRECTION('',(0.,0.,1.));
#830 = DIRECTION('',(1.,0.,0.));
#831 = ADVANCED_FACE('',(#832,#835,#838,#841,#852,#863),#866,.T.);
#832 = FACE_BOUND('',#833,.T.);
#833 = EDGE_LOOP('',(#834));
#834 = ORIENTED_EDGE('',*,*,#820,.T.);
#835 = FACE_BOUND('',#836,.F.);
#836 = EDGE_LOOP('',(#837));
#837 = ORIENTED_EDGE('',*,*,#647,.T.);
#838 = FACE_BOUND('',#839,.F.);
#839 = EDGE_LOOP('',(#840));
#840 = ORIENTED_EDGE('',*,*,#721,.T.);
#841 = FACE_BOUND('',#842,.F.);
#842 = EDGE_LOOP('',(#843));
#843 = ORIENTED_EDGE('',*,*,#844,.T.);
#844 = EDGE_CURVE('',#845,#845,#847,.T.);
#845 = VERTEX_POINT('',#846);
#846 = CARTESIAN_POINT('',(1.75,7.75,0.));
#847 = CIRCLE('',#848,1.75);
#848 = AXIS2_PLACEMENT_3D('',#849,#850,#851);
#849 = CARTESIAN_POINT('',(0.,7.75,0.));
#850 = DIRECTION('',(0.,0.,1.));
#851 = DIRECTION('',(1.,0.,0.));
#852 = FACE_BOUND('',#853,.F.);
#853 = EDGE_LOOP('',(#854));
#854 = ORIENTED_EDGE('',*,*,#855,.T.);
#855 = EDGE_CURVE('',#856,#856,#858,.T.);
#856 = VERTEX_POINT('',#857);
#857 = CARTESIAN_POINT('',(-7.5,0.,0.));
#858 = CIRCLE('',#859,1.75);
#859 = AXIS2_PLACEMENT_3D('',#860,#861,#862);
#860 = CARTESIAN_POINT('',(-9.25,0.,0.));
#861 = DIRECTION('',(0.,0.,1.));
#862 = DIRECTION('',(1.,0.,0.));
#863 = FACE_BOUND('',#864,.F.);
#864 = EDGE_LOOP('',(#865));
#865 = ORIENTED_EDGE('',*,*,#696,.T.);
#866 = PLANE('',#867);
#867 = AXIS2_PLACEMENT_3D('',#868,#869,#870);
#868 = CARTESIAN_POINT('',(-4.71640230899E-16,2.658911368827E-16,0.));
#869 = DIRECTION('',(0.,0.,1.));
#870 = DIRECTION('',(1.,0.,0.));
#871 = ADVANCED_FACE('',(#872),#883,.F.);
#872 = FACE_BOUND('',#873,.F.);
#873 = EDGE_LOOP('',(#874,#880,#881,#882));
#874 = ORIENTED_EDGE('',*,*,#875,.T.);
#875 = EDGE_CURVE('',#856,#765,#876,.T.);
#876 = LINE('',#877,#878);
#877 = CARTESIAN_POINT('',(-7.5,0.,0.));
#878 = VECTOR('',#879,1.);
#879 = DIRECTION('',(-0.,-0.,-1.));
#880 = ORIENTED_EDGE('',*,*,#764,.T.);
#881 = ORIENTED_EDGE('',*,*,#875,.F.);
#882 = ORIENTED_EDGE('',*,*,#855,.F.);
#883 = CYLINDRICAL_SURFACE('',#884,1.75);
#884 = AXIS2_PLACEMENT_3D('',#885,#886,#887);
#885 = CARTESIAN_POINT('',(-9.25,0.,0.));
#886 = DIRECTION('',(0.,0.,1.));
#887 = DIRECTION('',(1.,0.,0.));
#888 = ADVANCED_FACE('',(#889),#902,.F.);
#889 = FACE_BOUND('',#890,.F.);
#890 = EDGE_LOOP('',(#891,#892,#898,#899,#900,#901));
#891 = ORIENTED_EDGE('',*,*,#844,.F.);
#892 = ORIENTED_EDGE('',*,*,#893,.T.);
#893 = EDGE_CURVE('',#845,#778,#894,.T.);
#894 = LINE('',#895,#896);
#895 = CARTESIAN_POINT('',(1.75,7.75,0.));
#896 = VECTOR('',#897,1.);
#897 = DIRECTION('',(-0.,-0.,-1.));
#898 = ORIENTED_EDGE('',*,*,#786,.T.);
#899 = ORIENTED_EDGE('',*,*,#795,.T.);
#900 = ORIENTED_EDGE('',*,*,#775,.T.);
#901 = ORIENTED_EDGE('',*,*,#893,.F.);
#902 = CYLINDRICAL_SURFACE('',#903,1.75);
#903 = AXIS2_PLACEMENT_3D('',#904,#905,#906);
#904 = CARTESIAN_POINT('',(0.,7.75,0.));
#905 = DIRECTION('',(0.,0.,1.));
#906 = DIRECTION('',(1.,0.,0.));
#907 = ( GEOMETRIC_REPRESENTATION_CONTEXT(3) 
GLOBAL_UNCERTAINTY_ASSIGNED_CONTEXT((#911)) GLOBAL_UNIT_ASSIGNED_CONTEXT
((#908,#909,#910)) REPRESENTATION_CONTEXT('Context #1',
  '3D Context with UNIT and UNCERTAINTY') );
#908 = ( LENGTH_UNIT() NAMED_UNIT(*) SI_UNIT(.MILLI.,.METRE.) );
#909 = ( NAMED_UNIT(*) PLANE_ANGLE_UNIT() SI_UNIT($,.RADIAN.) );
#910 = ( NAMED_UNIT(*) SI_UNIT($,.STERADIAN.) SOLID_ANGLE_UNIT() );
#911 = UNCERTAINTY_MEASURE_WITH_UNIT(LENGTH_MEASURE(2.E-06),#908,
  'distance_accuracy_value','confusion accuracy');
#912 = PRODUCT_RELATED_PRODUCT_CATEGORY('part',$,(#7));
#913 = MECHANICAL_DESIGN_GEOMETRIC_PRESENTATION_REPRESENTATION('',(#914)
  ,#907);
#914 = STYLED_ITEM('color',(#915),#15);
#915 = PRESENTATION_STYLE_ASSIGNMENT((#916,#922));
#916 = SURFACE_STYLE_USAGE(.BOTH.,#917);
#917 = SURFACE_SIDE_STYLE('',(#918));
#918 = SURFACE_STYLE_FILL_AREA(#919);
#919 = FILL_AREA_STYLE('',(#920));
#920 = FILL_AREA_STYLE_COLOUR('',#921);
#921 = COLOUR_RGB('',0.447058818107,0.474509808674,0.501960817233);
#922 = CURVE_STYLE('',#923,POSITIVE_LENGTH_MEASURE(0.1),#924);
#923 = DRAUGHTING_PRE_DEFINED_CURVE_FONT('continuous');
#924 = COLOUR_RGB('',9.803921802644E-02,9.803921802644E-02,
  9.803921802644E-02);
ENDSEC;
END-ISO-10303-21;
